<mxfile host="Electron" agent="Mozilla/5.0 (Windows NT 10.0; Win64; x64) AppleWebKit/537.36 (KHTML, like Gecko) draw.io/26.1.1 Chrome/132.0.6834.210 Electron/34.3.3 Safari/537.36" version="26.1.1" pages="7">
  <diagram name="0. szint" id="WsxF800MHR1ex04NqW6G">
    <mxGraphModel dx="2435" dy="1589" grid="1" gridSize="10" guides="1" tooltips="1" connect="1" arrows="1" fold="1" page="0" pageScale="1" pageWidth="2339" pageHeight="3300" math="0" shadow="0">
      <root>
        <mxCell id="0" />
        <mxCell id="1" parent="0" />
        <mxCell id="Yl-9ydT-v0HOnNL2ww_S-5" value="&lt;font style=&quot;font-size: 18px;&quot;&gt;FakeBook&lt;br&gt;(rendszer)&lt;/font&gt;" style="ellipse;whiteSpace=wrap;html=1;aspect=fixed;" vertex="1" parent="1">
          <mxGeometry x="-620" y="-425" width="115" height="115" as="geometry" />
        </mxCell>
        <mxCell id="Yl-9ydT-v0HOnNL2ww_S-6" value="Felhasználó" style="rounded=0;whiteSpace=wrap;html=1;" vertex="1" parent="1">
          <mxGeometry x="-1010" y="-397.5" width="120" height="60" as="geometry" />
        </mxCell>
        <mxCell id="Yl-9ydT-v0HOnNL2ww_S-7" value="Érdeklődési kör" style="rounded=0;whiteSpace=wrap;html=1;" vertex="1" parent="1">
          <mxGeometry x="-390" y="-240" width="120" height="60" as="geometry" />
        </mxCell>
        <mxCell id="Yl-9ydT-v0HOnNL2ww_S-8" value="Csoport" style="rounded=0;whiteSpace=wrap;html=1;" vertex="1" parent="1">
          <mxGeometry x="-820" y="-160" width="120" height="60" as="geometry" />
        </mxCell>
        <mxCell id="Yl-9ydT-v0HOnNL2ww_S-9" value="Csoportüzenetek" style="rounded=0;whiteSpace=wrap;html=1;" vertex="1" parent="1">
          <mxGeometry x="-590" y="-140" width="120" height="60" as="geometry" />
        </mxCell>
        <mxCell id="Yl-9ydT-v0HOnNL2ww_S-10" value="Privát üzenetek" style="rounded=0;whiteSpace=wrap;html=1;" vertex="1" parent="1">
          <mxGeometry x="-620" y="-680" width="120" height="60" as="geometry" />
        </mxCell>
        <mxCell id="Yl-9ydT-v0HOnNL2ww_S-11" value="Posztok" style="rounded=0;whiteSpace=wrap;html=1;" vertex="1" parent="1">
          <mxGeometry x="-380" y="-640" width="120" height="60" as="geometry" />
        </mxCell>
        <mxCell id="Yl-9ydT-v0HOnNL2ww_S-12" value="Kommentek" style="rounded=0;whiteSpace=wrap;html=1;" vertex="1" parent="1">
          <mxGeometry x="-340" y="-430" width="120" height="60" as="geometry" />
        </mxCell>
        <mxCell id="Yl-9ydT-v0HOnNL2ww_S-13" value="Barátlista" style="rounded=0;whiteSpace=wrap;html=1;" vertex="1" parent="1">
          <mxGeometry x="-840" y="-600" width="120" height="60" as="geometry" />
        </mxCell>
        <mxCell id="uj494glwMvfX--ccQNTS-1" style="edgeStyle=none;curved=1;rounded=0;orthogonalLoop=1;jettySize=auto;html=1;exitX=1;exitY=0.25;exitDx=0;exitDy=0;fontSize=12;startSize=8;endSize=8;entryX=0.024;entryY=0.372;entryDx=0;entryDy=0;entryPerimeter=0;" edge="1" parent="1" source="Yl-9ydT-v0HOnNL2ww_S-6" target="Yl-9ydT-v0HOnNL2ww_S-5">
          <mxGeometry relative="1" as="geometry">
            <mxPoint x="-640" y="-390" as="targetPoint" />
          </mxGeometry>
        </mxCell>
        <mxCell id="uj494glwMvfX--ccQNTS-2" style="edgeStyle=none;curved=1;rounded=0;orthogonalLoop=1;jettySize=auto;html=1;exitX=-0.002;exitY=0.619;exitDx=0;exitDy=0;fontSize=12;startSize=8;endSize=8;entryX=1;entryY=0.75;entryDx=0;entryDy=0;exitPerimeter=0;" edge="1" parent="1" source="Yl-9ydT-v0HOnNL2ww_S-5" target="Yl-9ydT-v0HOnNL2ww_S-6">
          <mxGeometry relative="1" as="geometry">
            <mxPoint x="-840" y="-300" as="sourcePoint" />
            <mxPoint x="-627" y="-300" as="targetPoint" />
          </mxGeometry>
        </mxCell>
        <mxCell id="uj494glwMvfX--ccQNTS-3" value="Bejelentkezés, Tevékenység" style="text;html=1;align=center;verticalAlign=middle;resizable=0;points=[];autosize=1;strokeColor=none;fillColor=none;fontSize=16;" vertex="1" parent="1">
          <mxGeometry x="-880" y="-410" width="230" height="30" as="geometry" />
        </mxCell>
        <mxCell id="uj494glwMvfX--ccQNTS-4" value="Lekért adatok" style="text;html=1;align=center;verticalAlign=middle;resizable=0;points=[];autosize=1;strokeColor=none;fillColor=none;fontSize=16;" vertex="1" parent="1">
          <mxGeometry x="-850" y="-350" width="120" height="30" as="geometry" />
        </mxCell>
        <mxCell id="uj494glwMvfX--ccQNTS-5" style="edgeStyle=none;curved=0;rounded=0;orthogonalLoop=1;jettySize=auto;html=1;exitX=0.087;exitY=0.783;exitDx=0;exitDy=0;fontSize=12;startSize=8;endSize=8;entryX=0.5;entryY=0;entryDx=0;entryDy=0;exitPerimeter=0;" edge="1" parent="1" source="Yl-9ydT-v0HOnNL2ww_S-5" target="Yl-9ydT-v0HOnNL2ww_S-8">
          <mxGeometry relative="1" as="geometry">
            <mxPoint x="-610" y="-200" as="sourcePoint" />
            <mxPoint x="-880" y="-198" as="targetPoint" />
            <Array as="points" />
          </mxGeometry>
        </mxCell>
        <mxCell id="uj494glwMvfX--ccQNTS-6" value="Csatlagozás" style="text;html=1;align=center;verticalAlign=middle;resizable=0;points=[];autosize=1;strokeColor=none;fillColor=none;fontSize=16;" vertex="1" parent="1">
          <mxGeometry x="-810" y="-250" width="110" height="30" as="geometry" />
        </mxCell>
        <mxCell id="uj494glwMvfX--ccQNTS-7" style="edgeStyle=none;curved=0;rounded=0;orthogonalLoop=1;jettySize=auto;html=1;exitX=0.5;exitY=1;exitDx=0;exitDy=0;fontSize=12;startSize=8;endSize=8;entryX=0.25;entryY=0;entryDx=0;entryDy=0;" edge="1" parent="1" source="Yl-9ydT-v0HOnNL2ww_S-5" target="Yl-9ydT-v0HOnNL2ww_S-9">
          <mxGeometry relative="1" as="geometry">
            <mxPoint x="-470" y="-221" as="sourcePoint" />
            <mxPoint x="-740" y="-219" as="targetPoint" />
          </mxGeometry>
        </mxCell>
        <mxCell id="uj494glwMvfX--ccQNTS-8" value="Küldés" style="text;html=1;align=center;verticalAlign=middle;resizable=0;points=[];autosize=1;strokeColor=none;fillColor=none;fontSize=16;" vertex="1" parent="1">
          <mxGeometry x="-640" y="-235" width="70" height="30" as="geometry" />
        </mxCell>
        <mxCell id="uj494glwMvfX--ccQNTS-9" style="edgeStyle=none;curved=1;rounded=0;orthogonalLoop=1;jettySize=auto;html=1;exitX=0.5;exitY=0;exitDx=0;exitDy=0;fontSize=12;startSize=8;endSize=8;entryX=0.756;entryY=0.946;entryDx=0;entryDy=0;entryPerimeter=0;" edge="1" parent="1" source="Yl-9ydT-v0HOnNL2ww_S-9" target="Yl-9ydT-v0HOnNL2ww_S-5">
          <mxGeometry relative="1" as="geometry">
            <mxPoint x="-430" y="-340" as="sourcePoint" />
            <mxPoint x="-428" y="-170" as="targetPoint" />
          </mxGeometry>
        </mxCell>
        <mxCell id="uj494glwMvfX--ccQNTS-10" value="Megjelenítés" style="text;html=1;align=center;verticalAlign=middle;resizable=0;points=[];autosize=1;strokeColor=none;fillColor=none;fontSize=16;" vertex="1" parent="1">
          <mxGeometry x="-530" y="-205" width="110" height="30" as="geometry" />
        </mxCell>
        <mxCell id="uj494glwMvfX--ccQNTS-11" value="Felvétel" style="text;html=1;align=center;verticalAlign=middle;resizable=0;points=[];autosize=1;strokeColor=none;fillColor=none;fontSize=16;" vertex="1" parent="1">
          <mxGeometry x="-420" y="-300" width="80" height="30" as="geometry" />
        </mxCell>
        <mxCell id="uj494glwMvfX--ccQNTS-12" style="edgeStyle=none;curved=0;rounded=0;orthogonalLoop=1;jettySize=auto;html=1;exitX=1;exitY=1;exitDx=0;exitDy=0;fontSize=12;startSize=8;endSize=8;entryX=0.25;entryY=0;entryDx=0;entryDy=0;startArrow=classic;startFill=1;endArrow=none;" edge="1" parent="1" source="Yl-9ydT-v0HOnNL2ww_S-5" target="Yl-9ydT-v0HOnNL2ww_S-7">
          <mxGeometry relative="1" as="geometry">
            <mxPoint x="-450" y="-370" as="sourcePoint" />
            <mxPoint x="-448" y="-200" as="targetPoint" />
            <Array as="points" />
          </mxGeometry>
        </mxCell>
        <mxCell id="uj494glwMvfX--ccQNTS-14" style="edgeStyle=none;curved=0;rounded=0;orthogonalLoop=1;jettySize=auto;html=1;exitX=0;exitY=0.75;exitDx=0;exitDy=0;fontSize=12;startSize=8;endSize=8;entryX=1;entryY=0.5;entryDx=0;entryDy=0;startArrow=classic;startFill=1;endArrow=none;" edge="1" parent="1" source="Yl-9ydT-v0HOnNL2ww_S-12" target="Yl-9ydT-v0HOnNL2ww_S-5">
          <mxGeometry relative="1" as="geometry">
            <mxPoint x="-260" y="-450" as="sourcePoint" />
            <mxPoint x="-450" y="-360" as="targetPoint" />
          </mxGeometry>
        </mxCell>
        <mxCell id="uj494glwMvfX--ccQNTS-15" value="Közététel" style="text;html=1;align=center;verticalAlign=middle;resizable=0;points=[];autosize=1;strokeColor=none;fillColor=none;fontSize=16;" vertex="1" parent="1">
          <mxGeometry x="-450" y="-370" width="90" height="30" as="geometry" />
        </mxCell>
        <mxCell id="uj494glwMvfX--ccQNTS-16" style="edgeStyle=none;curved=1;rounded=0;orthogonalLoop=1;jettySize=auto;html=1;exitX=0;exitY=0.25;exitDx=0;exitDy=0;fontSize=12;startSize=8;endSize=8;entryX=0.885;entryY=0.193;entryDx=0;entryDy=0;entryPerimeter=0;" edge="1" parent="1" source="Yl-9ydT-v0HOnNL2ww_S-12" target="Yl-9ydT-v0HOnNL2ww_S-5">
          <mxGeometry relative="1" as="geometry">
            <mxPoint x="-420" y="-374" as="sourcePoint" />
            <mxPoint x="-423" y="-550" as="targetPoint" />
          </mxGeometry>
        </mxCell>
        <mxCell id="uj494glwMvfX--ccQNTS-17" value="Megjelenítés" style="text;html=1;align=center;verticalAlign=middle;resizable=0;points=[];autosize=1;strokeColor=none;fillColor=none;fontSize=16;" vertex="1" parent="1">
          <mxGeometry x="-480" y="-440" width="110" height="30" as="geometry" />
        </mxCell>
        <mxCell id="uj494glwMvfX--ccQNTS-18" style="edgeStyle=none;curved=1;rounded=0;orthogonalLoop=1;jettySize=auto;html=1;exitX=0;exitY=0;exitDx=0;exitDy=0;fontSize=12;startSize=8;endSize=8;entryX=0.75;entryY=1;entryDx=0;entryDy=0;" edge="1" parent="1" source="Yl-9ydT-v0HOnNL2ww_S-5" target="Yl-9ydT-v0HOnNL2ww_S-13">
          <mxGeometry relative="1" as="geometry">
            <mxPoint x="-604.2450000000001" y="-452.345" as="sourcePoint" />
            <mxPoint x="-577" y="-540" as="targetPoint" />
          </mxGeometry>
        </mxCell>
        <mxCell id="uj494glwMvfX--ccQNTS-19" value="Bejelölés" style="text;html=1;align=center;verticalAlign=middle;resizable=0;points=[];autosize=1;strokeColor=none;fillColor=none;fontSize=16;" vertex="1" parent="1">
          <mxGeometry x="-790" y="-490" width="90" height="30" as="geometry" />
        </mxCell>
        <mxCell id="uj494glwMvfX--ccQNTS-20" style="edgeStyle=none;curved=1;rounded=0;orthogonalLoop=1;jettySize=auto;html=1;exitX=0.554;exitY=-0.009;exitDx=0;exitDy=0;fontSize=12;startSize=8;endSize=8;entryX=0.5;entryY=1;entryDx=0;entryDy=0;exitPerimeter=0;" edge="1" parent="1" source="Yl-9ydT-v0HOnNL2ww_S-5" target="Yl-9ydT-v0HOnNL2ww_S-10">
          <mxGeometry relative="1" as="geometry">
            <mxPoint x="-558.5" y="-397.5" as="sourcePoint" />
            <mxPoint x="-561.5" y="-573.5" as="targetPoint" />
          </mxGeometry>
        </mxCell>
        <mxCell id="uj494glwMvfX--ccQNTS-21" style="edgeStyle=none;curved=1;rounded=0;orthogonalLoop=1;jettySize=auto;html=1;exitX=0.25;exitY=1;exitDx=0;exitDy=0;fontSize=12;startSize=8;endSize=8;entryX=0.343;entryY=0.02;entryDx=0;entryDy=0;entryPerimeter=0;" edge="1" parent="1" source="Yl-9ydT-v0HOnNL2ww_S-10" target="Yl-9ydT-v0HOnNL2ww_S-5">
          <mxGeometry relative="1" as="geometry">
            <mxPoint x="-534" y="-412" as="sourcePoint" />
            <mxPoint x="-520" y="-610" as="targetPoint" />
          </mxGeometry>
        </mxCell>
        <mxCell id="uj494glwMvfX--ccQNTS-22" value="Küldés" style="text;html=1;align=center;verticalAlign=middle;resizable=0;points=[];autosize=1;strokeColor=none;fillColor=none;fontSize=16;" vertex="1" parent="1">
          <mxGeometry x="-560" y="-530" width="70" height="30" as="geometry" />
        </mxCell>
        <mxCell id="uj494glwMvfX--ccQNTS-23" value="Fogadás" style="text;html=1;align=center;verticalAlign=middle;resizable=0;points=[];autosize=1;strokeColor=none;fillColor=none;fontSize=16;" vertex="1" parent="1">
          <mxGeometry x="-680" y="-560" width="90" height="30" as="geometry" />
        </mxCell>
        <mxCell id="uj494glwMvfX--ccQNTS-24" style="edgeStyle=none;curved=1;rounded=0;orthogonalLoop=1;jettySize=auto;html=1;fontSize=12;startSize=8;endSize=8;entryX=0;entryY=0.75;entryDx=0;entryDy=0;exitX=0.636;exitY=0.01;exitDx=0;exitDy=0;exitPerimeter=0;startArrow=classic;startFill=1;endArrow=none;" edge="1" parent="1" source="Yl-9ydT-v0HOnNL2ww_S-5" target="Yl-9ydT-v0HOnNL2ww_S-11">
          <mxGeometry relative="1" as="geometry">
            <mxPoint x="-530" y="-450" as="sourcePoint" />
            <mxPoint x="-550" y="-610" as="targetPoint" />
          </mxGeometry>
        </mxCell>
        <mxCell id="uj494glwMvfX--ccQNTS-25" style="edgeStyle=none;curved=1;rounded=0;orthogonalLoop=1;jettySize=auto;html=1;fontSize=12;startSize=8;endSize=8;exitX=0.25;exitY=1;exitDx=0;exitDy=0;startArrow=classic;startFill=1;endArrow=none;" edge="1" parent="1" source="Yl-9ydT-v0HOnNL2ww_S-11" target="Yl-9ydT-v0HOnNL2ww_S-5">
          <mxGeometry relative="1" as="geometry">
            <mxPoint x="-350" y="-414" as="sourcePoint" />
            <mxPoint x="-183" y="-585" as="targetPoint" />
          </mxGeometry>
        </mxCell>
        <mxCell id="uj494glwMvfX--ccQNTS-26" value="Közzététel" style="text;html=1;align=center;verticalAlign=middle;resizable=0;points=[];autosize=1;strokeColor=none;fillColor=none;fontSize=16;" vertex="1" parent="1">
          <mxGeometry x="-420" y="-510" width="100" height="30" as="geometry" />
        </mxCell>
        <mxCell id="uj494glwMvfX--ccQNTS-27" value="Böngészés" style="text;html=1;align=center;verticalAlign=middle;resizable=0;points=[];autosize=1;strokeColor=none;fillColor=none;fontSize=16;" vertex="1" parent="1">
          <mxGeometry x="-500" y="-600" width="100" height="30" as="geometry" />
        </mxCell>
      </root>
    </mxGraphModel>
  </diagram>
  <diagram id="a_WndPUpp4FtFSQbFGAH" name="1. szint">
    <mxGraphModel dx="1450" dy="1071" grid="1" gridSize="10" guides="1" tooltips="1" connect="1" arrows="1" fold="1" page="0" pageScale="1" pageWidth="2339" pageHeight="3300" math="0" shadow="0">
      <root>
        <mxCell id="0" />
        <mxCell id="1" parent="0" />
        <mxCell id="RUB373bwEvXRfoKpJJ-u-1" value="Látogató" style="ellipse;whiteSpace=wrap;html=1;fontSize=16;" parent="1" vertex="1">
          <mxGeometry x="-340" y="-30" width="120" height="80" as="geometry" />
        </mxCell>
        <mxCell id="RUB373bwEvXRfoKpJJ-u-8" style="edgeStyle=none;curved=1;rounded=0;orthogonalLoop=1;jettySize=auto;html=1;entryX=1;entryY=1;entryDx=0;entryDy=0;fontSize=12;startSize=8;endSize=8;" parent="1" target="RUB373bwEvXRfoKpJJ-u-1" edge="1">
          <mxGeometry relative="1" as="geometry">
            <mxPoint y="40" as="sourcePoint" />
          </mxGeometry>
        </mxCell>
        <mxCell id="RUB373bwEvXRfoKpJJ-u-12" style="edgeStyle=none;curved=1;rounded=0;orthogonalLoop=1;jettySize=auto;html=1;exitX=1;exitY=0.5;exitDx=0;exitDy=0;entryX=0;entryY=0.5;entryDx=0;entryDy=0;fontSize=12;startSize=8;endSize=8;startArrow=classic;startFill=1;" parent="1" source="RUB373bwEvXRfoKpJJ-u-5" target="RUB373bwEvXRfoKpJJ-u-11" edge="1">
          <mxGeometry relative="1" as="geometry" />
        </mxCell>
        <mxCell id="RUB373bwEvXRfoKpJJ-u-5" value="1." style="swimlane;whiteSpace=wrap;html=1;" parent="1" vertex="1">
          <mxGeometry y="-70" width="200" height="160" as="geometry" />
        </mxCell>
        <mxCell id="RUB373bwEvXRfoKpJJ-u-6" value="Bejelentkezés" style="text;html=1;align=center;verticalAlign=middle;resizable=0;points=[];autosize=1;strokeColor=none;fillColor=none;fontSize=16;" parent="RUB373bwEvXRfoKpJJ-u-5" vertex="1">
          <mxGeometry x="40" y="85" width="120" height="30" as="geometry" />
        </mxCell>
        <mxCell id="RUB373bwEvXRfoKpJJ-u-7" value="" style="endArrow=classic;html=1;rounded=0;fontSize=12;startSize=8;endSize=8;curved=1;exitX=1;exitY=0;exitDx=0;exitDy=0;" parent="1" source="RUB373bwEvXRfoKpJJ-u-1" edge="1">
          <mxGeometry width="50" height="50" relative="1" as="geometry">
            <mxPoint x="-170" y="170" as="sourcePoint" />
            <mxPoint y="-18" as="targetPoint" />
          </mxGeometry>
        </mxCell>
        <mxCell id="RUB373bwEvXRfoKpJJ-u-9" value="Belépési adatok megadása" style="text;html=1;align=center;verticalAlign=middle;resizable=0;points=[];autosize=1;strokeColor=none;fillColor=none;fontSize=16;" parent="1" vertex="1">
          <mxGeometry x="-230" y="-50" width="220" height="30" as="geometry" />
        </mxCell>
        <mxCell id="RUB373bwEvXRfoKpJJ-u-10" value="Autentikáció" style="text;html=1;align=center;verticalAlign=middle;resizable=0;points=[];autosize=1;strokeColor=none;fillColor=none;fontSize=16;" parent="1" vertex="1">
          <mxGeometry x="-175" y="40" width="110" height="30" as="geometry" />
        </mxCell>
        <mxCell id="RUB373bwEvXRfoKpJJ-u-11" value="Hitelesítő szolgáltatás" style="rounded=0;whiteSpace=wrap;html=1;" parent="1" vertex="1">
          <mxGeometry x="342" y="-5" width="160" height="30" as="geometry" />
        </mxCell>
        <mxCell id="RUB373bwEvXRfoKpJJ-u-42" style="edgeStyle=none;curved=0;rounded=0;orthogonalLoop=1;jettySize=auto;html=1;exitX=1;exitY=1;exitDx=0;exitDy=0;fontSize=12;startSize=8;endSize=8;entryX=0;entryY=0.5;entryDx=0;entryDy=0;" parent="1" source="RUB373bwEvXRfoKpJJ-u-13" target="RUB373bwEvXRfoKpJJ-u-37" edge="1">
          <mxGeometry relative="1" as="geometry">
            <mxPoint x="-80" y="420" as="targetPoint" />
            <Array as="points">
              <mxPoint x="-238" y="455" />
            </Array>
          </mxGeometry>
        </mxCell>
        <mxCell id="RUB373bwEvXRfoKpJJ-u-47" style="edgeStyle=none;curved=0;rounded=0;orthogonalLoop=1;jettySize=auto;html=1;exitX=0;exitY=1;exitDx=0;exitDy=0;fontSize=12;startSize=8;endSize=8;entryX=0;entryY=0.5;entryDx=0;entryDy=0;" parent="1" source="RUB373bwEvXRfoKpJJ-u-13" target="RUB373bwEvXRfoKpJJ-u-48" edge="1">
          <mxGeometry relative="1" as="geometry">
            <mxPoint x="-20" y="620" as="targetPoint" />
            <Array as="points">
              <mxPoint x="-320" y="665" />
            </Array>
          </mxGeometry>
        </mxCell>
        <mxCell id="RUB373bwEvXRfoKpJJ-u-13" value="Belépett felhasználó" style="ellipse;whiteSpace=wrap;html=1;fontSize=16;" parent="1" vertex="1">
          <mxGeometry x="-340" y="205" width="120" height="80" as="geometry" />
        </mxCell>
        <mxCell id="RUB373bwEvXRfoKpJJ-u-15" style="edgeStyle=none;curved=1;rounded=0;orthogonalLoop=1;jettySize=auto;html=1;exitX=1;exitY=0.5;exitDx=0;exitDy=0;entryX=0;entryY=0.5;entryDx=0;entryDy=0;fontSize=12;startSize=8;endSize=8;startArrow=none;startFill=0;" parent="1" source="RUB373bwEvXRfoKpJJ-u-16" target="RUB373bwEvXRfoKpJJ-u-21" edge="1">
          <mxGeometry relative="1" as="geometry" />
        </mxCell>
        <mxCell id="RUB373bwEvXRfoKpJJ-u-16" value="2." style="swimlane;whiteSpace=wrap;html=1;startSize=23;" parent="1" vertex="1">
          <mxGeometry y="170" width="200" height="150" as="geometry" />
        </mxCell>
        <mxCell id="RUB373bwEvXRfoKpJJ-u-17" value="Üzenet küldés" style="text;html=1;align=center;verticalAlign=middle;resizable=0;points=[];autosize=1;strokeColor=none;fillColor=none;fontSize=16;" parent="RUB373bwEvXRfoKpJJ-u-16" vertex="1">
          <mxGeometry x="40" y="70" width="120" height="30" as="geometry" />
        </mxCell>
        <mxCell id="RUB373bwEvXRfoKpJJ-u-18" value="" style="endArrow=classic;html=1;rounded=0;fontSize=12;startSize=8;endSize=8;curved=1;exitX=1;exitY=0.5;exitDx=0;exitDy=0;entryX=0;entryY=0.5;entryDx=0;entryDy=0;" parent="1" source="RUB373bwEvXRfoKpJJ-u-13" target="RUB373bwEvXRfoKpJJ-u-16" edge="1">
          <mxGeometry width="50" height="50" relative="1" as="geometry">
            <mxPoint x="-170" y="410" as="sourcePoint" />
            <mxPoint y="242" as="targetPoint" />
          </mxGeometry>
        </mxCell>
        <mxCell id="RUB373bwEvXRfoKpJJ-u-19" value="Írás" style="text;html=1;align=center;verticalAlign=middle;resizable=0;points=[];autosize=1;strokeColor=none;fillColor=none;fontSize=16;" parent="1" vertex="1">
          <mxGeometry x="-145" y="205" width="50" height="30" as="geometry" />
        </mxCell>
        <mxCell id="RUB373bwEvXRfoKpJJ-u-21" value="Másik felhasználó" style="rounded=0;whiteSpace=wrap;html=1;" parent="1" vertex="1">
          <mxGeometry x="342" y="230" width="160" height="30" as="geometry" />
        </mxCell>
        <mxCell id="RUB373bwEvXRfoKpJJ-u-22" value="Rendszer&lt;div&gt;admin&lt;/div&gt;" style="ellipse;whiteSpace=wrap;html=1;fontSize=16;" parent="1" vertex="1">
          <mxGeometry x="-350" y="1100" width="120" height="80" as="geometry" />
        </mxCell>
        <mxCell id="RUB373bwEvXRfoKpJJ-u-24" style="edgeStyle=none;curved=1;rounded=0;orthogonalLoop=1;jettySize=auto;html=1;exitX=1;exitY=0.5;exitDx=0;exitDy=0;entryX=0;entryY=0.5;entryDx=0;entryDy=0;fontSize=12;startSize=8;endSize=8;startArrow=classic;startFill=1;" parent="1" source="RUB373bwEvXRfoKpJJ-u-25" target="RUB373bwEvXRfoKpJJ-u-30" edge="1">
          <mxGeometry relative="1" as="geometry" />
        </mxCell>
        <mxCell id="RUB373bwEvXRfoKpJJ-u-25" value="6." style="swimlane;whiteSpace=wrap;html=1;" parent="1" vertex="1">
          <mxGeometry y="1040" width="200" height="200" as="geometry" />
        </mxCell>
        <mxCell id="RUB373bwEvXRfoKpJJ-u-31" value="&lt;span style=&quot;font-size: 16px; text-wrap-mode: nowrap;&quot;&gt;Mások posztjainak és&lt;br&gt;&lt;/span&gt;&lt;span style=&quot;font-size: 16px; text-wrap-mode: nowrap; background-color: transparent; color: light-dark(rgb(0, 0, 0), rgb(255, 255, 255));&quot;&gt;kommenteinek törlése&lt;/span&gt;" style="text;html=1;align=center;verticalAlign=middle;rounded=0;whiteSpace=wrap;" parent="RUB373bwEvXRfoKpJJ-u-25" vertex="1">
          <mxGeometry y="24" width="200" height="176" as="geometry" />
        </mxCell>
        <mxCell id="RUB373bwEvXRfoKpJJ-u-27" value="" style="endArrow=classic;html=1;rounded=0;fontSize=12;startSize=8;endSize=8;curved=1;exitX=1;exitY=0.5;exitDx=0;exitDy=0;entryX=0;entryY=0.5;entryDx=0;entryDy=0;" parent="1" source="RUB373bwEvXRfoKpJJ-u-22" target="RUB373bwEvXRfoKpJJ-u-25" edge="1">
          <mxGeometry width="50" height="50" relative="1" as="geometry">
            <mxPoint x="-180" y="1280" as="sourcePoint" />
            <mxPoint x="-10" y="1112" as="targetPoint" />
          </mxGeometry>
        </mxCell>
        <mxCell id="RUB373bwEvXRfoKpJJ-u-28" value="Választás" style="text;html=1;align=center;verticalAlign=middle;resizable=0;points=[];autosize=1;strokeColor=none;fillColor=none;fontSize=16;" parent="1" vertex="1">
          <mxGeometry x="-165" y="1110" width="90" height="30" as="geometry" />
        </mxCell>
        <mxCell id="RUB373bwEvXRfoKpJJ-u-30" value="Posztok és kommentek" style="rounded=0;whiteSpace=wrap;html=1;" parent="1" vertex="1">
          <mxGeometry x="342" y="1125" width="160" height="30" as="geometry" />
        </mxCell>
        <mxCell id="RUB373bwEvXRfoKpJJ-u-36" style="edgeStyle=none;curved=1;rounded=0;orthogonalLoop=1;jettySize=auto;html=1;exitX=1;exitY=0.25;exitDx=0;exitDy=0;entryX=0;entryY=0.5;entryDx=0;entryDy=0;fontSize=12;startSize=8;endSize=8;startArrow=classic;startFill=1;endArrow=none;" parent="1" source="RUB373bwEvXRfoKpJJ-u-37" target="RUB373bwEvXRfoKpJJ-u-39" edge="1">
          <mxGeometry relative="1" as="geometry" />
        </mxCell>
        <mxCell id="RUB373bwEvXRfoKpJJ-u-43" style="edgeStyle=none;curved=0;rounded=0;orthogonalLoop=1;jettySize=auto;html=1;exitX=0;exitY=0.75;exitDx=0;exitDy=0;fontSize=12;startSize=8;endSize=8;entryX=0.5;entryY=1;entryDx=0;entryDy=0;" parent="1" source="RUB373bwEvXRfoKpJJ-u-37" target="RUB373bwEvXRfoKpJJ-u-13" edge="1">
          <mxGeometry relative="1" as="geometry">
            <mxPoint x="-270" y="492.42857142857133" as="targetPoint" />
            <Array as="points">
              <mxPoint x="-280" y="490" />
            </Array>
          </mxGeometry>
        </mxCell>
        <mxCell id="RUB373bwEvXRfoKpJJ-u-37" value="3." style="swimlane;whiteSpace=wrap;html=1;startSize=23;" parent="1" vertex="1">
          <mxGeometry y="380" width="200" height="150" as="geometry" />
        </mxCell>
        <mxCell id="RUB373bwEvXRfoKpJJ-u-38" value="Posztolás és&lt;br&gt;kommentelés" style="text;html=1;align=center;verticalAlign=middle;resizable=0;points=[];autosize=1;strokeColor=none;fillColor=none;fontSize=16;" parent="RUB373bwEvXRfoKpJJ-u-37" vertex="1">
          <mxGeometry x="40" y="60" width="120" height="50" as="geometry" />
        </mxCell>
        <mxCell id="RUB373bwEvXRfoKpJJ-u-39" value="Eddigiek" style="rounded=0;whiteSpace=wrap;html=1;" parent="1" vertex="1">
          <mxGeometry x="342" y="403" width="160" height="30" as="geometry" />
        </mxCell>
        <mxCell id="RUB373bwEvXRfoKpJJ-u-40" style="edgeStyle=none;curved=1;rounded=0;orthogonalLoop=1;jettySize=auto;html=1;exitX=1;exitY=0.75;exitDx=0;exitDy=0;fontSize=12;startSize=8;endSize=8;startArrow=none;startFill=0;entryX=0;entryY=0.5;entryDx=0;entryDy=0;" parent="1" source="RUB373bwEvXRfoKpJJ-u-37" target="RUB373bwEvXRfoKpJJ-u-41" edge="1">
          <mxGeometry relative="1" as="geometry">
            <mxPoint x="220" y="470" as="sourcePoint" />
            <mxPoint x="290" y="510" as="targetPoint" />
          </mxGeometry>
        </mxCell>
        <mxCell id="RUB373bwEvXRfoKpJJ-u-41" value="Létrehozás vagy Saját&lt;br&gt;módosítása és törlése" style="rounded=0;whiteSpace=wrap;html=1;" parent="1" vertex="1">
          <mxGeometry x="342" y="462" width="160" height="62" as="geometry" />
        </mxCell>
        <mxCell id="RUB373bwEvXRfoKpJJ-u-45" value="Közzététel" style="text;html=1;align=center;verticalAlign=middle;resizable=0;points=[];autosize=1;strokeColor=none;fillColor=none;fontSize=16;" parent="1" vertex="1">
          <mxGeometry x="-186" y="420" width="100" height="30" as="geometry" />
        </mxCell>
        <mxCell id="RUB373bwEvXRfoKpJJ-u-46" value="Megtekintés" style="text;html=1;align=center;verticalAlign=middle;resizable=0;points=[];autosize=1;strokeColor=none;fillColor=none;fontSize=16;" parent="1" vertex="1">
          <mxGeometry x="-191" y="500" width="110" height="30" as="geometry" />
        </mxCell>
        <mxCell id="RUB373bwEvXRfoKpJJ-u-48" value="4." style="swimlane;whiteSpace=wrap;html=1;startSize=23;" parent="1" vertex="1">
          <mxGeometry y="590" width="200" height="150" as="geometry" />
        </mxCell>
        <mxCell id="RUB373bwEvXRfoKpJJ-u-49" value="Csoporttevékenység" style="text;html=1;align=center;verticalAlign=middle;resizable=0;points=[];autosize=1;strokeColor=none;fillColor=none;fontSize=16;" parent="RUB373bwEvXRfoKpJJ-u-48" vertex="1">
          <mxGeometry x="15" y="70" width="170" height="30" as="geometry" />
        </mxCell>
        <mxCell id="RUB373bwEvXRfoKpJJ-u-50" value="Belépés és üzenetküldés" style="text;html=1;align=center;verticalAlign=middle;resizable=0;points=[];autosize=1;strokeColor=none;fillColor=none;fontSize=16;" parent="1" vertex="1">
          <mxGeometry x="-250" y="630" width="200" height="30" as="geometry" />
        </mxCell>
        <mxCell id="RUB373bwEvXRfoKpJJ-u-51" style="edgeStyle=none;curved=1;rounded=0;orthogonalLoop=1;jettySize=auto;html=1;exitX=1;exitY=0.25;exitDx=0;exitDy=0;entryX=0;entryY=0.5;entryDx=0;entryDy=0;fontSize=12;startSize=8;endSize=8;startArrow=classic;startFill=1;endArrow=none;" parent="1" source="RUB373bwEvXRfoKpJJ-u-48" target="RUB373bwEvXRfoKpJJ-u-52" edge="1">
          <mxGeometry relative="1" as="geometry">
            <mxPoint x="220" y="619.5" as="sourcePoint" />
          </mxGeometry>
        </mxCell>
        <mxCell id="RUB373bwEvXRfoKpJJ-u-52" value="Üzenetek" style="rounded=0;whiteSpace=wrap;html=1;" parent="1" vertex="1">
          <mxGeometry x="342" y="613" width="160" height="30" as="geometry" />
        </mxCell>
        <mxCell id="RUB373bwEvXRfoKpJJ-u-53" style="edgeStyle=none;curved=1;rounded=0;orthogonalLoop=1;jettySize=auto;html=1;fontSize=12;startSize=8;endSize=8;startArrow=none;startFill=0;entryX=0;entryY=0.5;entryDx=0;entryDy=0;" parent="1" target="RUB373bwEvXRfoKpJJ-u-55" edge="1">
          <mxGeometry relative="1" as="geometry">
            <mxPoint x="200" y="675" as="sourcePoint" />
            <mxPoint x="342.0000000000002" y="703" as="targetPoint" />
          </mxGeometry>
        </mxCell>
        <mxCell id="RUB373bwEvXRfoKpJJ-u-55" value="Új üzenet" style="rounded=0;whiteSpace=wrap;html=1;" parent="1" vertex="1">
          <mxGeometry x="342" y="660" width="160" height="30" as="geometry" />
        </mxCell>
        <mxCell id="RUB373bwEvXRfoKpJJ-u-56" value="Belépés" style="rounded=0;whiteSpace=wrap;html=1;" parent="1" vertex="1">
          <mxGeometry x="342" y="710" width="160" height="30" as="geometry" />
        </mxCell>
        <mxCell id="RUB373bwEvXRfoKpJJ-u-57" style="edgeStyle=none;curved=1;rounded=0;orthogonalLoop=1;jettySize=auto;html=1;fontSize=12;startSize=8;endSize=8;startArrow=none;startFill=0;entryX=0;entryY=0.5;entryDx=0;entryDy=0;" parent="1" target="RUB373bwEvXRfoKpJJ-u-56" edge="1">
          <mxGeometry relative="1" as="geometry">
            <mxPoint x="200" y="725" as="sourcePoint" />
            <mxPoint x="352" y="685" as="targetPoint" />
          </mxGeometry>
        </mxCell>
        <mxCell id="zCkcXHPI6e-MMtmJv_4C-1" value="Csoport&lt;div&gt;admin&lt;/div&gt;" style="ellipse;whiteSpace=wrap;html=1;fontSize=16;" parent="1" vertex="1">
          <mxGeometry x="-350" y="850" width="120" height="80" as="geometry" />
        </mxCell>
        <mxCell id="zCkcXHPI6e-MMtmJv_4C-2" style="edgeStyle=none;curved=1;rounded=0;orthogonalLoop=1;jettySize=auto;html=1;exitX=1;exitY=0.25;exitDx=0;exitDy=0;entryX=0;entryY=0.5;entryDx=0;entryDy=0;fontSize=12;startSize=8;endSize=8;startArrow=classic;startFill=1;" parent="1" source="zCkcXHPI6e-MMtmJv_4C-4" target="zCkcXHPI6e-MMtmJv_4C-7" edge="1">
          <mxGeometry relative="1" as="geometry" />
        </mxCell>
        <mxCell id="zCkcXHPI6e-MMtmJv_4C-3" value="5." style="swimlane;whiteSpace=wrap;html=1;" parent="1" vertex="1">
          <mxGeometry y="790" width="200" height="200" as="geometry" />
        </mxCell>
        <mxCell id="zCkcXHPI6e-MMtmJv_4C-4" value="&lt;span style=&quot;font-size: 16px; text-wrap-mode: nowrap;&quot;&gt;Tagok és Csoportüzenetek&lt;br&gt;eltávolítása&lt;/span&gt;" style="text;html=1;align=center;verticalAlign=middle;rounded=0;whiteSpace=wrap;" parent="zCkcXHPI6e-MMtmJv_4C-3" vertex="1">
          <mxGeometry y="24" width="200" height="176" as="geometry" />
        </mxCell>
        <mxCell id="zCkcXHPI6e-MMtmJv_4C-5" value="" style="endArrow=classic;html=1;rounded=0;fontSize=12;startSize=8;endSize=8;curved=1;exitX=1;exitY=0.5;exitDx=0;exitDy=0;entryX=0;entryY=0.5;entryDx=0;entryDy=0;" parent="1" source="zCkcXHPI6e-MMtmJv_4C-1" target="zCkcXHPI6e-MMtmJv_4C-3" edge="1">
          <mxGeometry width="50" height="50" relative="1" as="geometry">
            <mxPoint x="-180" y="1030" as="sourcePoint" />
            <mxPoint x="-10" y="862" as="targetPoint" />
          </mxGeometry>
        </mxCell>
        <mxCell id="zCkcXHPI6e-MMtmJv_4C-6" value="Választás" style="text;html=1;align=center;verticalAlign=middle;resizable=0;points=[];autosize=1;strokeColor=none;fillColor=none;fontSize=16;" parent="1" vertex="1">
          <mxGeometry x="-165" y="860" width="90" height="30" as="geometry" />
        </mxCell>
        <mxCell id="zCkcXHPI6e-MMtmJv_4C-7" value="Tagok" style="rounded=0;whiteSpace=wrap;html=1;" parent="1" vertex="1">
          <mxGeometry x="342" y="844" width="160" height="30" as="geometry" />
        </mxCell>
        <mxCell id="iAcaVGkPCC3Kf3WWxgr8-1" style="edgeStyle=none;curved=1;rounded=0;orthogonalLoop=1;jettySize=auto;html=1;entryX=0;entryY=0.5;entryDx=0;entryDy=0;fontSize=12;startSize=8;endSize=8;startArrow=classic;startFill=1;exitX=1;exitY=0.75;exitDx=0;exitDy=0;" parent="1" source="zCkcXHPI6e-MMtmJv_4C-4" target="iAcaVGkPCC3Kf3WWxgr8-2" edge="1">
          <mxGeometry relative="1" as="geometry">
            <mxPoint x="220" y="930" as="sourcePoint" />
          </mxGeometry>
        </mxCell>
        <mxCell id="iAcaVGkPCC3Kf3WWxgr8-2" value="Csoportüzenetek" style="rounded=0;whiteSpace=wrap;html=1;" parent="1" vertex="1">
          <mxGeometry x="342" y="930" width="160" height="30" as="geometry" />
        </mxCell>
      </root>
    </mxGraphModel>
  </diagram>
  <diagram id="xeDfpq4wZ6i5wJH6wQYs" name="2. szint - 3">
    <mxGraphModel dx="1755" dy="1410" grid="1" gridSize="10" guides="1" tooltips="1" connect="1" arrows="1" fold="1" page="0" pageScale="1" pageWidth="2339" pageHeight="3300" math="0" shadow="0">
      <root>
        <mxCell id="0" />
        <mxCell id="1" parent="0" />
        <mxCell id="zYp3o8j_0oEGGXlo77yW-4" style="edgeStyle=none;curved=1;rounded=0;orthogonalLoop=1;jettySize=auto;html=1;exitX=1;exitY=0.5;exitDx=0;exitDy=0;entryX=0;entryY=0.5;entryDx=0;entryDy=0;fontSize=12;startSize=8;endSize=8;" edge="1" parent="1" source="PwVSWXm5tLKI6PJ6oRd2-1" target="zYp3o8j_0oEGGXlo77yW-2">
          <mxGeometry relative="1" as="geometry" />
        </mxCell>
        <mxCell id="9fcKyUQ-nRJT0NuBSKNh-6" style="edgeStyle=none;curved=0;rounded=0;orthogonalLoop=1;jettySize=auto;html=1;exitX=1;exitY=1;exitDx=0;exitDy=0;entryX=0;entryY=0.5;entryDx=0;entryDy=0;fontSize=12;startSize=8;endSize=8;" edge="1" parent="1" source="PwVSWXm5tLKI6PJ6oRd2-1" target="9fcKyUQ-nRJT0NuBSKNh-1">
          <mxGeometry relative="1" as="geometry">
            <Array as="points">
              <mxPoint x="-317" y="-345" />
            </Array>
          </mxGeometry>
        </mxCell>
        <mxCell id="PwVSWXm5tLKI6PJ6oRd2-1" value="Belépett felhasználó" style="ellipse;whiteSpace=wrap;html=1;fontSize=16;" vertex="1" parent="1">
          <mxGeometry x="-420" y="-535" width="120" height="80" as="geometry" />
        </mxCell>
        <mxCell id="PswIneVML8PJ1jF52m63-1" value="3." style="swimlane;whiteSpace=wrap;html=1;" vertex="1" parent="1">
          <mxGeometry x="-140" y="-610" width="350" height="510" as="geometry" />
        </mxCell>
        <mxCell id="zYp3o8j_0oEGGXlo77yW-2" value="3.1" style="swimlane;whiteSpace=wrap;html=1;" vertex="1" parent="PswIneVML8PJ1jF52m63-1">
          <mxGeometry x="75" y="60" width="200" height="110" as="geometry" />
        </mxCell>
        <mxCell id="zYp3o8j_0oEGGXlo77yW-3" value="Poszt közzététele" style="text;html=1;align=center;verticalAlign=middle;whiteSpace=wrap;rounded=0;" vertex="1" parent="zYp3o8j_0oEGGXlo77yW-2">
          <mxGeometry x="70" y="40" width="60" height="30" as="geometry" />
        </mxCell>
        <mxCell id="9fcKyUQ-nRJT0NuBSKNh-1" value="3.2" style="swimlane;whiteSpace=wrap;html=1;" vertex="1" parent="PswIneVML8PJ1jF52m63-1">
          <mxGeometry x="75" y="210" width="200" height="110" as="geometry" />
        </mxCell>
        <mxCell id="9fcKyUQ-nRJT0NuBSKNh-2" value="Saját posztok és kommentek szerkesztése, törlése" style="text;html=1;align=center;verticalAlign=middle;whiteSpace=wrap;rounded=0;" vertex="1" parent="9fcKyUQ-nRJT0NuBSKNh-1">
          <mxGeometry x="35" y="30" width="130" height="60" as="geometry" />
        </mxCell>
        <mxCell id="9fcKyUQ-nRJT0NuBSKNh-7" value="3.3" style="swimlane;whiteSpace=wrap;html=1;" vertex="1" parent="PswIneVML8PJ1jF52m63-1">
          <mxGeometry x="75" y="360" width="200" height="110" as="geometry" />
        </mxCell>
        <mxCell id="9fcKyUQ-nRJT0NuBSKNh-8" value="Mások posztjainak és kommentjeinek törlése" style="text;html=1;align=center;verticalAlign=middle;whiteSpace=wrap;rounded=0;" vertex="1" parent="9fcKyUQ-nRJT0NuBSKNh-7">
          <mxGeometry x="35" y="30" width="130" height="60" as="geometry" />
        </mxCell>
        <mxCell id="9fcKyUQ-nRJT0NuBSKNh-9" style="edgeStyle=none;curved=1;rounded=0;orthogonalLoop=1;jettySize=auto;html=1;exitX=1;exitY=0.5;exitDx=0;exitDy=0;entryX=0;entryY=0.5;entryDx=0;entryDy=0;fontSize=12;startSize=8;endSize=8;" edge="1" parent="1" source="zYp3o8j_0oEGGXlo77yW-1" target="9fcKyUQ-nRJT0NuBSKNh-7">
          <mxGeometry relative="1" as="geometry" />
        </mxCell>
        <mxCell id="zYp3o8j_0oEGGXlo77yW-1" value="Rendszer&lt;br&gt;admin" style="ellipse;whiteSpace=wrap;html=1;fontSize=16;" vertex="1" parent="1">
          <mxGeometry x="-420" y="-235" width="120" height="80" as="geometry" />
        </mxCell>
        <mxCell id="zYp3o8j_0oEGGXlo77yW-5" value="Posztok és kommentek" style="rounded=0;whiteSpace=wrap;html=1;" vertex="1" parent="1">
          <mxGeometry x="380" y="-370" width="120" height="60" as="geometry" />
        </mxCell>
        <mxCell id="zYp3o8j_0oEGGXlo77yW-6" style="edgeStyle=none;curved=1;rounded=0;orthogonalLoop=1;jettySize=auto;html=1;exitX=1;exitY=0.5;exitDx=0;exitDy=0;entryX=0;entryY=0.25;entryDx=0;entryDy=0;fontSize=12;startSize=8;endSize=8;" edge="1" parent="1" source="zYp3o8j_0oEGGXlo77yW-2" target="zYp3o8j_0oEGGXlo77yW-5">
          <mxGeometry relative="1" as="geometry" />
        </mxCell>
        <mxCell id="zYp3o8j_0oEGGXlo77yW-7" value="Megírás" style="text;html=1;align=center;verticalAlign=middle;resizable=0;points=[];autosize=1;strokeColor=none;fillColor=none;fontSize=16;" vertex="1" parent="1">
          <mxGeometry x="-220" y="-525" width="80" height="30" as="geometry" />
        </mxCell>
        <mxCell id="9fcKyUQ-nRJT0NuBSKNh-3" style="edgeStyle=none;curved=1;rounded=0;orthogonalLoop=1;jettySize=auto;html=1;entryX=0;entryY=0.5;entryDx=0;entryDy=0;fontSize=12;startSize=8;endSize=8;startArrow=classic;startFill=1;exitX=1;exitY=0.5;exitDx=0;exitDy=0;" edge="1" parent="1" source="9fcKyUQ-nRJT0NuBSKNh-1" target="zYp3o8j_0oEGGXlo77yW-5">
          <mxGeometry relative="1" as="geometry">
            <mxPoint x="150" y="-310" as="sourcePoint" />
          </mxGeometry>
        </mxCell>
        <mxCell id="9fcKyUQ-nRJT0NuBSKNh-10" value="Választás (és módosítás)" style="text;html=1;align=center;verticalAlign=middle;resizable=0;points=[];autosize=1;strokeColor=none;fillColor=none;fontSize=16;" vertex="1" parent="1">
          <mxGeometry x="-340" y="-340" width="200" height="30" as="geometry" />
        </mxCell>
        <mxCell id="9fcKyUQ-nRJT0NuBSKNh-11" value="Választás" style="text;html=1;align=center;verticalAlign=middle;resizable=0;points=[];autosize=1;strokeColor=none;fillColor=none;fontSize=16;" vertex="1" parent="1">
          <mxGeometry x="-250" y="-185" width="90" height="30" as="geometry" />
        </mxCell>
        <mxCell id="9fcKyUQ-nRJT0NuBSKNh-12" style="edgeStyle=none;curved=1;rounded=0;orthogonalLoop=1;jettySize=auto;html=1;exitX=1;exitY=0.5;exitDx=0;exitDy=0;entryX=0;entryY=0.75;entryDx=0;entryDy=0;fontSize=12;startSize=8;endSize=8;" edge="1" parent="1" source="9fcKyUQ-nRJT0NuBSKNh-7" target="zYp3o8j_0oEGGXlo77yW-5">
          <mxGeometry relative="1" as="geometry" />
        </mxCell>
        <mxCell id="Bn3HAnNd94ovk5q4wG6n-1" value="" style="endArrow=none;html=1;rounded=0;fontSize=12;startSize=8;endSize=8;curved=1;exitX=0.5;exitY=0;exitDx=0;exitDy=0;entryX=0.5;entryY=1;entryDx=0;entryDy=0;startArrow=classic;startFill=1;" edge="1" parent="1" source="zYp3o8j_0oEGGXlo77yW-1" target="PwVSWXm5tLKI6PJ6oRd2-1">
          <mxGeometry width="50" height="50" relative="1" as="geometry">
            <mxPoint x="-460" y="-310" as="sourcePoint" />
            <mxPoint x="-410" y="-360" as="targetPoint" />
          </mxGeometry>
        </mxCell>
        <mxCell id="Bn3HAnNd94ovk5q4wG6n-2" value="Jogöröklődés" style="text;html=1;align=center;verticalAlign=middle;resizable=0;points=[];autosize=1;strokeColor=none;fillColor=none;fontSize=16;" vertex="1" parent="1">
          <mxGeometry x="-490" y="-370" width="120" height="30" as="geometry" />
        </mxCell>
      </root>
    </mxGraphModel>
  </diagram>
  <diagram name="2. szint - 4" id="9b3LgZDGaoSLOso0d1KG">
    <mxGraphModel dx="1640" dy="1337" grid="1" gridSize="10" guides="1" tooltips="1" connect="1" arrows="1" fold="1" page="0" pageScale="1" pageWidth="2339" pageHeight="3300" math="0" shadow="0">
      <root>
        <mxCell id="WUi4EevdhT8x67gwIgUz-0" />
        <mxCell id="WUi4EevdhT8x67gwIgUz-1" parent="WUi4EevdhT8x67gwIgUz-0" />
        <mxCell id="WUi4EevdhT8x67gwIgUz-2" style="edgeStyle=none;curved=1;rounded=0;orthogonalLoop=1;jettySize=auto;html=1;exitX=1;exitY=0.5;exitDx=0;exitDy=0;entryX=0;entryY=0.5;entryDx=0;entryDy=0;fontSize=12;startSize=8;endSize=8;" edge="1" parent="WUi4EevdhT8x67gwIgUz-1" source="WUi4EevdhT8x67gwIgUz-4" target="WUi4EevdhT8x67gwIgUz-6">
          <mxGeometry relative="1" as="geometry" />
        </mxCell>
        <mxCell id="WUi4EevdhT8x67gwIgUz-3" style="edgeStyle=none;curved=0;rounded=0;orthogonalLoop=1;jettySize=auto;html=1;exitX=1;exitY=1;exitDx=0;exitDy=0;entryX=0;entryY=0.5;entryDx=0;entryDy=0;fontSize=12;startSize=8;endSize=8;" edge="1" parent="WUi4EevdhT8x67gwIgUz-1" source="WUi4EevdhT8x67gwIgUz-4" target="WUi4EevdhT8x67gwIgUz-8">
          <mxGeometry relative="1" as="geometry">
            <Array as="points">
              <mxPoint x="-318" y="-345" />
            </Array>
          </mxGeometry>
        </mxCell>
        <mxCell id="q5HHBYtIqlNOPxNjhWoM-0" style="edgeStyle=none;curved=1;rounded=0;orthogonalLoop=1;jettySize=auto;html=1;exitX=0.5;exitY=1;exitDx=0;exitDy=0;entryX=0.5;entryY=0;entryDx=0;entryDy=0;fontSize=12;startSize=8;endSize=8;" edge="1" parent="WUi4EevdhT8x67gwIgUz-1" source="WUi4EevdhT8x67gwIgUz-4" target="WUi4EevdhT8x67gwIgUz-13">
          <mxGeometry relative="1" as="geometry" />
        </mxCell>
        <mxCell id="WUi4EevdhT8x67gwIgUz-4" value="Csoporttag" style="ellipse;whiteSpace=wrap;html=1;fontSize=16;" vertex="1" parent="WUi4EevdhT8x67gwIgUz-1">
          <mxGeometry x="-420" y="-535" width="120" height="80" as="geometry" />
        </mxCell>
        <mxCell id="WUi4EevdhT8x67gwIgUz-5" value="4." style="swimlane;whiteSpace=wrap;html=1;" vertex="1" parent="WUi4EevdhT8x67gwIgUz-1">
          <mxGeometry x="-140" y="-610" width="350" height="680" as="geometry" />
        </mxCell>
        <mxCell id="WUi4EevdhT8x67gwIgUz-6" value="4.1" style="swimlane;whiteSpace=wrap;html=1;" vertex="1" parent="WUi4EevdhT8x67gwIgUz-5">
          <mxGeometry x="75" y="60" width="200" height="110" as="geometry" />
        </mxCell>
        <mxCell id="WUi4EevdhT8x67gwIgUz-7" value="Csatlakozás" style="text;html=1;align=center;verticalAlign=middle;whiteSpace=wrap;rounded=0;" vertex="1" parent="WUi4EevdhT8x67gwIgUz-6">
          <mxGeometry x="70" y="40" width="60" height="30" as="geometry" />
        </mxCell>
        <mxCell id="WUi4EevdhT8x67gwIgUz-8" value="4.2" style="swimlane;whiteSpace=wrap;html=1;" vertex="1" parent="WUi4EevdhT8x67gwIgUz-5">
          <mxGeometry x="75" y="210" width="200" height="110" as="geometry" />
        </mxCell>
        <mxCell id="WUi4EevdhT8x67gwIgUz-9" value="Üzenés csoportnak és saját üzenetek átírása, törlése" style="text;html=1;align=center;verticalAlign=middle;whiteSpace=wrap;rounded=0;" vertex="1" parent="WUi4EevdhT8x67gwIgUz-8">
          <mxGeometry x="35" y="30" width="130" height="60" as="geometry" />
        </mxCell>
        <mxCell id="WUi4EevdhT8x67gwIgUz-10" value="4.3" style="swimlane;whiteSpace=wrap;html=1;" vertex="1" parent="WUi4EevdhT8x67gwIgUz-5">
          <mxGeometry x="75" y="360" width="200" height="110" as="geometry" />
        </mxCell>
        <mxCell id="WUi4EevdhT8x67gwIgUz-11" value="Mások üzeneteinek törlése" style="text;html=1;align=center;verticalAlign=middle;whiteSpace=wrap;rounded=0;" vertex="1" parent="WUi4EevdhT8x67gwIgUz-10">
          <mxGeometry x="35" y="30" width="130" height="60" as="geometry" />
        </mxCell>
        <mxCell id="TX2EfoChb_tTHrKvhLvO-0" value="4.4" style="swimlane;whiteSpace=wrap;html=1;" vertex="1" parent="WUi4EevdhT8x67gwIgUz-5">
          <mxGeometry x="75" y="510" width="200" height="110" as="geometry" />
        </mxCell>
        <mxCell id="TX2EfoChb_tTHrKvhLvO-1" value="Csoporttagok kidobása" style="text;html=1;align=center;verticalAlign=middle;whiteSpace=wrap;rounded=0;" vertex="1" parent="TX2EfoChb_tTHrKvhLvO-0">
          <mxGeometry x="35" y="30" width="130" height="60" as="geometry" />
        </mxCell>
        <mxCell id="WUi4EevdhT8x67gwIgUz-12" style="edgeStyle=none;curved=1;rounded=0;orthogonalLoop=1;jettySize=auto;html=1;exitX=1;exitY=0.5;exitDx=0;exitDy=0;entryX=0;entryY=0.5;entryDx=0;entryDy=0;fontSize=12;startSize=8;endSize=8;" edge="1" parent="WUi4EevdhT8x67gwIgUz-1" source="WUi4EevdhT8x67gwIgUz-13" target="WUi4EevdhT8x67gwIgUz-10">
          <mxGeometry relative="1" as="geometry" />
        </mxCell>
        <mxCell id="TX2EfoChb_tTHrKvhLvO-2" style="edgeStyle=none;curved=0;rounded=0;orthogonalLoop=1;jettySize=auto;html=1;exitX=0.5;exitY=1;exitDx=0;exitDy=0;entryX=0;entryY=0.5;entryDx=0;entryDy=0;fontSize=12;startSize=8;endSize=8;" edge="1" parent="WUi4EevdhT8x67gwIgUz-1" source="WUi4EevdhT8x67gwIgUz-13" target="TX2EfoChb_tTHrKvhLvO-0">
          <mxGeometry relative="1" as="geometry">
            <Array as="points">
              <mxPoint x="-360" y="-45" />
            </Array>
          </mxGeometry>
        </mxCell>
        <mxCell id="WUi4EevdhT8x67gwIgUz-13" value="Csoport&lt;br&gt;admin" style="ellipse;whiteSpace=wrap;html=1;fontSize=16;" vertex="1" parent="WUi4EevdhT8x67gwIgUz-1">
          <mxGeometry x="-420" y="-235" width="120" height="80" as="geometry" />
        </mxCell>
        <mxCell id="WUi4EevdhT8x67gwIgUz-14" value="Csoportüzenetek" style="rounded=0;whiteSpace=wrap;html=1;" vertex="1" parent="WUi4EevdhT8x67gwIgUz-1">
          <mxGeometry x="270" y="-295" width="120" height="60" as="geometry" />
        </mxCell>
        <mxCell id="WUi4EevdhT8x67gwIgUz-16" value="Böngészés" style="text;html=1;align=center;verticalAlign=middle;resizable=0;points=[];autosize=1;strokeColor=none;fillColor=none;fontSize=16;" vertex="1" parent="WUi4EevdhT8x67gwIgUz-1">
          <mxGeometry x="-250" y="-525" width="100" height="30" as="geometry" />
        </mxCell>
        <mxCell id="WUi4EevdhT8x67gwIgUz-17" style="edgeStyle=none;curved=1;rounded=0;orthogonalLoop=1;jettySize=auto;html=1;fontSize=12;startSize=8;endSize=8;startArrow=classic;startFill=1;exitX=1;exitY=0.5;exitDx=0;exitDy=0;entryX=0;entryY=0.25;entryDx=0;entryDy=0;" edge="1" parent="WUi4EevdhT8x67gwIgUz-1" source="WUi4EevdhT8x67gwIgUz-8" target="WUi4EevdhT8x67gwIgUz-14">
          <mxGeometry relative="1" as="geometry">
            <mxPoint x="150" y="-310" as="sourcePoint" />
            <mxPoint x="270" y="-300" as="targetPoint" />
          </mxGeometry>
        </mxCell>
        <mxCell id="WUi4EevdhT8x67gwIgUz-18" value="Választás és/vagy Írás" style="text;html=1;align=center;verticalAlign=middle;resizable=0;points=[];autosize=1;strokeColor=none;fillColor=none;fontSize=16;" vertex="1" parent="WUi4EevdhT8x67gwIgUz-1">
          <mxGeometry x="-330" y="-340" width="180" height="30" as="geometry" />
        </mxCell>
        <mxCell id="WUi4EevdhT8x67gwIgUz-19" value="Választás" style="text;html=1;align=center;verticalAlign=middle;resizable=0;points=[];autosize=1;strokeColor=none;fillColor=none;fontSize=16;" vertex="1" parent="WUi4EevdhT8x67gwIgUz-1">
          <mxGeometry x="-250" y="-185" width="90" height="30" as="geometry" />
        </mxCell>
        <mxCell id="WUi4EevdhT8x67gwIgUz-20" style="edgeStyle=none;curved=1;rounded=0;orthogonalLoop=1;jettySize=auto;html=1;exitX=1;exitY=0.5;exitDx=0;exitDy=0;entryX=0;entryY=0.75;entryDx=0;entryDy=0;fontSize=12;startSize=8;endSize=8;" edge="1" parent="WUi4EevdhT8x67gwIgUz-1" source="WUi4EevdhT8x67gwIgUz-10" target="WUi4EevdhT8x67gwIgUz-14">
          <mxGeometry relative="1" as="geometry" />
        </mxCell>
        <mxCell id="q5HHBYtIqlNOPxNjhWoM-1" value="Jogöröklődés" style="text;html=1;align=center;verticalAlign=middle;resizable=0;points=[];autosize=1;strokeColor=none;fillColor=none;fontSize=16;" vertex="1" parent="WUi4EevdhT8x67gwIgUz-1">
          <mxGeometry x="-490" y="-370" width="120" height="30" as="geometry" />
        </mxCell>
        <mxCell id="TX2EfoChb_tTHrKvhLvO-3" value="Tag kiválasztása" style="text;html=1;align=center;verticalAlign=middle;resizable=0;points=[];autosize=1;strokeColor=none;fillColor=none;fontSize=16;" vertex="1" parent="WUi4EevdhT8x67gwIgUz-1">
          <mxGeometry x="-275" y="-80" width="140" height="30" as="geometry" />
        </mxCell>
        <mxCell id="TX2EfoChb_tTHrKvhLvO-4" value="Tagok" style="rounded=0;whiteSpace=wrap;html=1;" vertex="1" parent="WUi4EevdhT8x67gwIgUz-1">
          <mxGeometry x="500" y="-295" width="120" height="60" as="geometry" />
        </mxCell>
        <mxCell id="TX2EfoChb_tTHrKvhLvO-5" style="edgeStyle=none;curved=1;rounded=0;orthogonalLoop=1;jettySize=auto;html=1;exitX=1;exitY=0.5;exitDx=0;exitDy=0;entryX=0;entryY=0.75;entryDx=0;entryDy=0;fontSize=12;startSize=8;endSize=8;" edge="1" parent="WUi4EevdhT8x67gwIgUz-1" source="TX2EfoChb_tTHrKvhLvO-0" target="TX2EfoChb_tTHrKvhLvO-4">
          <mxGeometry relative="1" as="geometry" />
        </mxCell>
        <mxCell id="TX2EfoChb_tTHrKvhLvO-6" style="edgeStyle=none;curved=1;rounded=0;orthogonalLoop=1;jettySize=auto;html=1;exitX=1;exitY=0.5;exitDx=0;exitDy=0;fontSize=12;startSize=8;endSize=8;entryX=0;entryY=0.25;entryDx=0;entryDy=0;" edge="1" parent="WUi4EevdhT8x67gwIgUz-1" source="WUi4EevdhT8x67gwIgUz-6" target="TX2EfoChb_tTHrKvhLvO-4">
          <mxGeometry relative="1" as="geometry">
            <mxPoint x="480" y="-320" as="targetPoint" />
          </mxGeometry>
        </mxCell>
      </root>
    </mxGraphModel>
  </diagram>
  <diagram name="1. szint - F" id="EQShAU9ZfgjH3GQLR_PS">
    <mxGraphModel dx="1400" dy="1039" grid="1" gridSize="10" guides="1" tooltips="1" connect="1" arrows="1" fold="1" page="0" pageScale="1" pageWidth="2339" pageHeight="3300" math="0" shadow="0">
      <root>
        <mxCell id="qP4DaYPzQzSa8ORNxeyl-0" />
        <mxCell id="qP4DaYPzQzSa8ORNxeyl-1" parent="qP4DaYPzQzSa8ORNxeyl-0" />
        <mxCell id="qP4DaYPzQzSa8ORNxeyl-2" value="Látogató" style="ellipse;whiteSpace=wrap;html=1;fontSize=16;" vertex="1" parent="qP4DaYPzQzSa8ORNxeyl-1">
          <mxGeometry x="-340" y="-30" width="120" height="80" as="geometry" />
        </mxCell>
        <mxCell id="qP4DaYPzQzSa8ORNxeyl-3" style="edgeStyle=none;curved=1;rounded=0;orthogonalLoop=1;jettySize=auto;html=1;entryX=1;entryY=1;entryDx=0;entryDy=0;fontSize=12;startSize=8;endSize=8;" edge="1" parent="qP4DaYPzQzSa8ORNxeyl-1" target="qP4DaYPzQzSa8ORNxeyl-2">
          <mxGeometry relative="1" as="geometry">
            <mxPoint y="40" as="sourcePoint" />
          </mxGeometry>
        </mxCell>
        <mxCell id="qP4DaYPzQzSa8ORNxeyl-4" style="edgeStyle=none;curved=1;rounded=0;orthogonalLoop=1;jettySize=auto;html=1;exitX=1;exitY=0.5;exitDx=0;exitDy=0;entryX=0;entryY=0.5;entryDx=0;entryDy=0;fontSize=12;startSize=8;endSize=8;startArrow=classic;startFill=1;" edge="1" parent="qP4DaYPzQzSa8ORNxeyl-1" source="qP4DaYPzQzSa8ORNxeyl-5" target="qP4DaYPzQzSa8ORNxeyl-10">
          <mxGeometry relative="1" as="geometry" />
        </mxCell>
        <mxCell id="qP4DaYPzQzSa8ORNxeyl-5" value="1. Bejelentkező oldal" style="swimlane;whiteSpace=wrap;html=1;" vertex="1" parent="qP4DaYPzQzSa8ORNxeyl-1">
          <mxGeometry y="-70" width="200" height="160" as="geometry" />
        </mxCell>
        <mxCell id="qP4DaYPzQzSa8ORNxeyl-6" value="Bejelentkezés" style="text;html=1;align=center;verticalAlign=middle;resizable=0;points=[];autosize=1;strokeColor=none;fillColor=none;fontSize=16;" vertex="1" parent="qP4DaYPzQzSa8ORNxeyl-5">
          <mxGeometry x="40" y="85" width="120" height="30" as="geometry" />
        </mxCell>
        <mxCell id="qP4DaYPzQzSa8ORNxeyl-7" value="" style="endArrow=classic;html=1;rounded=0;fontSize=12;startSize=8;endSize=8;curved=1;exitX=1;exitY=0;exitDx=0;exitDy=0;" edge="1" parent="qP4DaYPzQzSa8ORNxeyl-1" source="qP4DaYPzQzSa8ORNxeyl-2">
          <mxGeometry width="50" height="50" relative="1" as="geometry">
            <mxPoint x="-170" y="170" as="sourcePoint" />
            <mxPoint y="-18" as="targetPoint" />
          </mxGeometry>
        </mxCell>
        <mxCell id="qP4DaYPzQzSa8ORNxeyl-8" value="Belépési adatok megadása" style="text;html=1;align=center;verticalAlign=middle;resizable=0;points=[];autosize=1;strokeColor=none;fillColor=none;fontSize=16;" vertex="1" parent="qP4DaYPzQzSa8ORNxeyl-1">
          <mxGeometry x="-230" y="-50" width="220" height="30" as="geometry" />
        </mxCell>
        <mxCell id="qP4DaYPzQzSa8ORNxeyl-9" value="Autentikáció" style="text;html=1;align=center;verticalAlign=middle;resizable=0;points=[];autosize=1;strokeColor=none;fillColor=none;fontSize=16;" vertex="1" parent="qP4DaYPzQzSa8ORNxeyl-1">
          <mxGeometry x="-175" y="40" width="110" height="30" as="geometry" />
        </mxCell>
        <mxCell id="qP4DaYPzQzSa8ORNxeyl-10" value="Hitelesítő szolgáltatás" style="rounded=0;whiteSpace=wrap;html=1;" vertex="1" parent="qP4DaYPzQzSa8ORNxeyl-1">
          <mxGeometry x="342" y="-5" width="160" height="30" as="geometry" />
        </mxCell>
        <mxCell id="qP4DaYPzQzSa8ORNxeyl-11" style="edgeStyle=none;curved=0;rounded=0;orthogonalLoop=1;jettySize=auto;html=1;exitX=1;exitY=1;exitDx=0;exitDy=0;fontSize=12;startSize=8;endSize=8;entryX=0;entryY=0.5;entryDx=0;entryDy=0;" edge="1" parent="qP4DaYPzQzSa8ORNxeyl-1" source="qP4DaYPzQzSa8ORNxeyl-13" target="qP4DaYPzQzSa8ORNxeyl-29">
          <mxGeometry relative="1" as="geometry">
            <mxPoint x="-80" y="420" as="targetPoint" />
            <Array as="points">
              <mxPoint x="-238" y="455" />
            </Array>
          </mxGeometry>
        </mxCell>
        <mxCell id="qP4DaYPzQzSa8ORNxeyl-12" style="edgeStyle=none;curved=0;rounded=0;orthogonalLoop=1;jettySize=auto;html=1;exitX=0;exitY=1;exitDx=0;exitDy=0;fontSize=12;startSize=8;endSize=8;entryX=0;entryY=0.5;entryDx=0;entryDy=0;" edge="1" parent="qP4DaYPzQzSa8ORNxeyl-1" source="qP4DaYPzQzSa8ORNxeyl-13" target="qP4DaYPzQzSa8ORNxeyl-36">
          <mxGeometry relative="1" as="geometry">
            <mxPoint x="-20" y="620" as="targetPoint" />
            <Array as="points">
              <mxPoint x="-320" y="665" />
            </Array>
          </mxGeometry>
        </mxCell>
        <mxCell id="qP4DaYPzQzSa8ORNxeyl-13" value="Belépett felhasználó" style="ellipse;whiteSpace=wrap;html=1;fontSize=16;" vertex="1" parent="qP4DaYPzQzSa8ORNxeyl-1">
          <mxGeometry x="-340" y="205" width="120" height="80" as="geometry" />
        </mxCell>
        <mxCell id="qP4DaYPzQzSa8ORNxeyl-14" style="edgeStyle=none;curved=1;rounded=0;orthogonalLoop=1;jettySize=auto;html=1;exitX=1;exitY=0.5;exitDx=0;exitDy=0;entryX=0;entryY=0.5;entryDx=0;entryDy=0;fontSize=12;startSize=8;endSize=8;startArrow=none;startFill=0;" edge="1" parent="qP4DaYPzQzSa8ORNxeyl-1" source="qP4DaYPzQzSa8ORNxeyl-15" target="qP4DaYPzQzSa8ORNxeyl-19">
          <mxGeometry relative="1" as="geometry" />
        </mxCell>
        <mxCell id="qP4DaYPzQzSa8ORNxeyl-15" value="2. Üzenő felület" style="swimlane;whiteSpace=wrap;html=1;startSize=23;" vertex="1" parent="qP4DaYPzQzSa8ORNxeyl-1">
          <mxGeometry y="170" width="200" height="150" as="geometry" />
        </mxCell>
        <mxCell id="qP4DaYPzQzSa8ORNxeyl-16" value="Üzenet küldés" style="text;html=1;align=center;verticalAlign=middle;resizable=0;points=[];autosize=1;strokeColor=none;fillColor=none;fontSize=16;" vertex="1" parent="qP4DaYPzQzSa8ORNxeyl-15">
          <mxGeometry x="40" y="70" width="120" height="30" as="geometry" />
        </mxCell>
        <mxCell id="qP4DaYPzQzSa8ORNxeyl-17" value="" style="endArrow=classic;html=1;rounded=0;fontSize=12;startSize=8;endSize=8;curved=1;exitX=1;exitY=0.5;exitDx=0;exitDy=0;entryX=0;entryY=0.5;entryDx=0;entryDy=0;" edge="1" parent="qP4DaYPzQzSa8ORNxeyl-1" source="qP4DaYPzQzSa8ORNxeyl-13" target="qP4DaYPzQzSa8ORNxeyl-15">
          <mxGeometry width="50" height="50" relative="1" as="geometry">
            <mxPoint x="-170" y="410" as="sourcePoint" />
            <mxPoint y="242" as="targetPoint" />
          </mxGeometry>
        </mxCell>
        <mxCell id="qP4DaYPzQzSa8ORNxeyl-18" value="Írás" style="text;html=1;align=center;verticalAlign=middle;resizable=0;points=[];autosize=1;strokeColor=none;fillColor=none;fontSize=16;" vertex="1" parent="qP4DaYPzQzSa8ORNxeyl-1">
          <mxGeometry x="-145" y="205" width="50" height="30" as="geometry" />
        </mxCell>
        <mxCell id="qP4DaYPzQzSa8ORNxeyl-19" value="Másik felhasználó" style="rounded=0;whiteSpace=wrap;html=1;" vertex="1" parent="qP4DaYPzQzSa8ORNxeyl-1">
          <mxGeometry x="342" y="230" width="160" height="30" as="geometry" />
        </mxCell>
        <mxCell id="qP4DaYPzQzSa8ORNxeyl-20" value="Rendszer&lt;div&gt;admin&lt;/div&gt;" style="ellipse;whiteSpace=wrap;html=1;fontSize=16;" vertex="1" parent="qP4DaYPzQzSa8ORNxeyl-1">
          <mxGeometry x="-350" y="1100" width="120" height="80" as="geometry" />
        </mxCell>
        <mxCell id="qP4DaYPzQzSa8ORNxeyl-21" style="edgeStyle=none;curved=1;rounded=0;orthogonalLoop=1;jettySize=auto;html=1;exitX=1;exitY=0.5;exitDx=0;exitDy=0;entryX=0;entryY=0.5;entryDx=0;entryDy=0;fontSize=12;startSize=8;endSize=8;startArrow=classic;startFill=1;" edge="1" parent="qP4DaYPzQzSa8ORNxeyl-1" source="qP4DaYPzQzSa8ORNxeyl-22" target="qP4DaYPzQzSa8ORNxeyl-26">
          <mxGeometry relative="1" as="geometry" />
        </mxCell>
        <mxCell id="qP4DaYPzQzSa8ORNxeyl-22" value="6. Poszt/más felhasználó oldala (+admin funkciók)" style="swimlane;whiteSpace=wrap;html=1;startSize=40;" vertex="1" parent="qP4DaYPzQzSa8ORNxeyl-1">
          <mxGeometry y="1040" width="200" height="200" as="geometry" />
        </mxCell>
        <mxCell id="qP4DaYPzQzSa8ORNxeyl-23" value="&lt;span style=&quot;font-size: 16px; text-wrap-mode: nowrap;&quot;&gt;Mások posztjainak és&lt;br&gt;&lt;/span&gt;&lt;span style=&quot;font-size: 16px; text-wrap-mode: nowrap; background-color: transparent; color: light-dark(rgb(0, 0, 0), rgb(255, 255, 255));&quot;&gt;kommenteinek törlése&lt;/span&gt;" style="text;html=1;align=center;verticalAlign=middle;rounded=0;whiteSpace=wrap;" vertex="1" parent="qP4DaYPzQzSa8ORNxeyl-22">
          <mxGeometry y="24" width="200" height="176" as="geometry" />
        </mxCell>
        <mxCell id="qP4DaYPzQzSa8ORNxeyl-24" value="" style="endArrow=classic;html=1;rounded=0;fontSize=12;startSize=8;endSize=8;curved=1;exitX=1;exitY=0.5;exitDx=0;exitDy=0;entryX=0;entryY=0.5;entryDx=0;entryDy=0;" edge="1" parent="qP4DaYPzQzSa8ORNxeyl-1" source="qP4DaYPzQzSa8ORNxeyl-20" target="qP4DaYPzQzSa8ORNxeyl-22">
          <mxGeometry width="50" height="50" relative="1" as="geometry">
            <mxPoint x="-180" y="1280" as="sourcePoint" />
            <mxPoint x="-10" y="1112" as="targetPoint" />
          </mxGeometry>
        </mxCell>
        <mxCell id="qP4DaYPzQzSa8ORNxeyl-25" value="Választás" style="text;html=1;align=center;verticalAlign=middle;resizable=0;points=[];autosize=1;strokeColor=none;fillColor=none;fontSize=16;" vertex="1" parent="qP4DaYPzQzSa8ORNxeyl-1">
          <mxGeometry x="-165" y="1110" width="90" height="30" as="geometry" />
        </mxCell>
        <mxCell id="qP4DaYPzQzSa8ORNxeyl-26" value="Posztok és kommentek" style="rounded=0;whiteSpace=wrap;html=1;" vertex="1" parent="qP4DaYPzQzSa8ORNxeyl-1">
          <mxGeometry x="342" y="1125" width="160" height="30" as="geometry" />
        </mxCell>
        <mxCell id="qP4DaYPzQzSa8ORNxeyl-27" style="edgeStyle=none;curved=1;rounded=0;orthogonalLoop=1;jettySize=auto;html=1;exitX=1;exitY=0.25;exitDx=0;exitDy=0;entryX=0;entryY=0.5;entryDx=0;entryDy=0;fontSize=12;startSize=8;endSize=8;startArrow=classic;startFill=1;endArrow=none;" edge="1" parent="qP4DaYPzQzSa8ORNxeyl-1" source="qP4DaYPzQzSa8ORNxeyl-29" target="qP4DaYPzQzSa8ORNxeyl-31">
          <mxGeometry relative="1" as="geometry" />
        </mxCell>
        <mxCell id="qP4DaYPzQzSa8ORNxeyl-28" style="edgeStyle=none;curved=0;rounded=0;orthogonalLoop=1;jettySize=auto;html=1;exitX=0;exitY=0.75;exitDx=0;exitDy=0;fontSize=12;startSize=8;endSize=8;entryX=0.5;entryY=1;entryDx=0;entryDy=0;" edge="1" parent="qP4DaYPzQzSa8ORNxeyl-1" source="qP4DaYPzQzSa8ORNxeyl-29" target="qP4DaYPzQzSa8ORNxeyl-13">
          <mxGeometry relative="1" as="geometry">
            <mxPoint x="-270" y="492.42857142857133" as="targetPoint" />
            <Array as="points">
              <mxPoint x="-280" y="490" />
            </Array>
          </mxGeometry>
        </mxCell>
        <mxCell id="qP4DaYPzQzSa8ORNxeyl-29" value="3. Feed" style="swimlane;whiteSpace=wrap;html=1;startSize=23;" vertex="1" parent="qP4DaYPzQzSa8ORNxeyl-1">
          <mxGeometry y="380" width="200" height="150" as="geometry" />
        </mxCell>
        <mxCell id="qP4DaYPzQzSa8ORNxeyl-30" value="Posztolás és&lt;br&gt;kommentelés" style="text;html=1;align=center;verticalAlign=middle;resizable=0;points=[];autosize=1;strokeColor=none;fillColor=none;fontSize=16;" vertex="1" parent="qP4DaYPzQzSa8ORNxeyl-29">
          <mxGeometry x="40" y="60" width="120" height="50" as="geometry" />
        </mxCell>
        <mxCell id="qP4DaYPzQzSa8ORNxeyl-31" value="Eddigiek" style="rounded=0;whiteSpace=wrap;html=1;" vertex="1" parent="qP4DaYPzQzSa8ORNxeyl-1">
          <mxGeometry x="342" y="403" width="160" height="30" as="geometry" />
        </mxCell>
        <mxCell id="qP4DaYPzQzSa8ORNxeyl-32" style="edgeStyle=none;curved=1;rounded=0;orthogonalLoop=1;jettySize=auto;html=1;exitX=1;exitY=0.75;exitDx=0;exitDy=0;fontSize=12;startSize=8;endSize=8;startArrow=none;startFill=0;entryX=0;entryY=0.5;entryDx=0;entryDy=0;" edge="1" parent="qP4DaYPzQzSa8ORNxeyl-1" source="qP4DaYPzQzSa8ORNxeyl-29" target="qP4DaYPzQzSa8ORNxeyl-33">
          <mxGeometry relative="1" as="geometry">
            <mxPoint x="220" y="470" as="sourcePoint" />
            <mxPoint x="290" y="510" as="targetPoint" />
          </mxGeometry>
        </mxCell>
        <mxCell id="qP4DaYPzQzSa8ORNxeyl-33" value="Létrehozás vagy Saját&lt;br&gt;módosítása és törlése" style="rounded=0;whiteSpace=wrap;html=1;" vertex="1" parent="qP4DaYPzQzSa8ORNxeyl-1">
          <mxGeometry x="342" y="462" width="160" height="62" as="geometry" />
        </mxCell>
        <mxCell id="qP4DaYPzQzSa8ORNxeyl-34" value="Közzététel" style="text;html=1;align=center;verticalAlign=middle;resizable=0;points=[];autosize=1;strokeColor=none;fillColor=none;fontSize=16;" vertex="1" parent="qP4DaYPzQzSa8ORNxeyl-1">
          <mxGeometry x="-186" y="420" width="100" height="30" as="geometry" />
        </mxCell>
        <mxCell id="qP4DaYPzQzSa8ORNxeyl-35" value="Megtekintés" style="text;html=1;align=center;verticalAlign=middle;resizable=0;points=[];autosize=1;strokeColor=none;fillColor=none;fontSize=16;" vertex="1" parent="qP4DaYPzQzSa8ORNxeyl-1">
          <mxGeometry x="-191" y="500" width="110" height="30" as="geometry" />
        </mxCell>
        <mxCell id="qP4DaYPzQzSa8ORNxeyl-36" value="4. Csoport oldal" style="swimlane;whiteSpace=wrap;html=1;startSize=23;" vertex="1" parent="qP4DaYPzQzSa8ORNxeyl-1">
          <mxGeometry y="590" width="200" height="150" as="geometry" />
        </mxCell>
        <mxCell id="qP4DaYPzQzSa8ORNxeyl-37" value="Csoporttevékenység" style="text;html=1;align=center;verticalAlign=middle;resizable=0;points=[];autosize=1;strokeColor=none;fillColor=none;fontSize=16;" vertex="1" parent="qP4DaYPzQzSa8ORNxeyl-36">
          <mxGeometry x="15" y="70" width="170" height="30" as="geometry" />
        </mxCell>
        <mxCell id="qP4DaYPzQzSa8ORNxeyl-38" value="Belépés és üzenetküldés" style="text;html=1;align=center;verticalAlign=middle;resizable=0;points=[];autosize=1;strokeColor=none;fillColor=none;fontSize=16;" vertex="1" parent="qP4DaYPzQzSa8ORNxeyl-1">
          <mxGeometry x="-250" y="630" width="200" height="30" as="geometry" />
        </mxCell>
        <mxCell id="qP4DaYPzQzSa8ORNxeyl-39" style="edgeStyle=none;curved=1;rounded=0;orthogonalLoop=1;jettySize=auto;html=1;exitX=1;exitY=0.25;exitDx=0;exitDy=0;entryX=0;entryY=0.5;entryDx=0;entryDy=0;fontSize=12;startSize=8;endSize=8;startArrow=classic;startFill=1;endArrow=none;" edge="1" parent="qP4DaYPzQzSa8ORNxeyl-1" source="qP4DaYPzQzSa8ORNxeyl-36" target="qP4DaYPzQzSa8ORNxeyl-40">
          <mxGeometry relative="1" as="geometry">
            <mxPoint x="220" y="619.5" as="sourcePoint" />
          </mxGeometry>
        </mxCell>
        <mxCell id="qP4DaYPzQzSa8ORNxeyl-40" value="Üzenetek" style="rounded=0;whiteSpace=wrap;html=1;" vertex="1" parent="qP4DaYPzQzSa8ORNxeyl-1">
          <mxGeometry x="342" y="613" width="160" height="30" as="geometry" />
        </mxCell>
        <mxCell id="qP4DaYPzQzSa8ORNxeyl-41" style="edgeStyle=none;curved=1;rounded=0;orthogonalLoop=1;jettySize=auto;html=1;fontSize=12;startSize=8;endSize=8;startArrow=none;startFill=0;entryX=0;entryY=0.5;entryDx=0;entryDy=0;" edge="1" parent="qP4DaYPzQzSa8ORNxeyl-1" target="qP4DaYPzQzSa8ORNxeyl-42">
          <mxGeometry relative="1" as="geometry">
            <mxPoint x="200" y="675" as="sourcePoint" />
            <mxPoint x="342.0000000000002" y="703" as="targetPoint" />
          </mxGeometry>
        </mxCell>
        <mxCell id="qP4DaYPzQzSa8ORNxeyl-42" value="Új üzenet" style="rounded=0;whiteSpace=wrap;html=1;" vertex="1" parent="qP4DaYPzQzSa8ORNxeyl-1">
          <mxGeometry x="342" y="660" width="160" height="30" as="geometry" />
        </mxCell>
        <mxCell id="qP4DaYPzQzSa8ORNxeyl-43" value="Belépés" style="rounded=0;whiteSpace=wrap;html=1;" vertex="1" parent="qP4DaYPzQzSa8ORNxeyl-1">
          <mxGeometry x="342" y="710" width="160" height="30" as="geometry" />
        </mxCell>
        <mxCell id="qP4DaYPzQzSa8ORNxeyl-44" style="edgeStyle=none;curved=1;rounded=0;orthogonalLoop=1;jettySize=auto;html=1;fontSize=12;startSize=8;endSize=8;startArrow=none;startFill=0;entryX=0;entryY=0.5;entryDx=0;entryDy=0;" edge="1" parent="qP4DaYPzQzSa8ORNxeyl-1" target="qP4DaYPzQzSa8ORNxeyl-43">
          <mxGeometry relative="1" as="geometry">
            <mxPoint x="200" y="725" as="sourcePoint" />
            <mxPoint x="352" y="685" as="targetPoint" />
          </mxGeometry>
        </mxCell>
        <mxCell id="qP4DaYPzQzSa8ORNxeyl-45" value="Csoport&lt;div&gt;admin&lt;/div&gt;" style="ellipse;whiteSpace=wrap;html=1;fontSize=16;" vertex="1" parent="qP4DaYPzQzSa8ORNxeyl-1">
          <mxGeometry x="-350" y="850" width="120" height="80" as="geometry" />
        </mxCell>
        <mxCell id="qP4DaYPzQzSa8ORNxeyl-46" style="edgeStyle=none;curved=1;rounded=0;orthogonalLoop=1;jettySize=auto;html=1;exitX=1;exitY=0.25;exitDx=0;exitDy=0;entryX=0;entryY=0.5;entryDx=0;entryDy=0;fontSize=12;startSize=8;endSize=8;startArrow=classic;startFill=1;" edge="1" parent="qP4DaYPzQzSa8ORNxeyl-1" source="qP4DaYPzQzSa8ORNxeyl-48" target="qP4DaYPzQzSa8ORNxeyl-51">
          <mxGeometry relative="1" as="geometry" />
        </mxCell>
        <mxCell id="qP4DaYPzQzSa8ORNxeyl-47" value="5. Csoport oldal (+admin funkciók)" style="swimlane;whiteSpace=wrap;html=1;" vertex="1" parent="qP4DaYPzQzSa8ORNxeyl-1">
          <mxGeometry x="-10" y="790" width="220" height="200" as="geometry" />
        </mxCell>
        <mxCell id="qP4DaYPzQzSa8ORNxeyl-48" value="&lt;span style=&quot;font-size: 16px; text-wrap-mode: nowrap;&quot;&gt;Tagok és Csoportüzenetek&lt;br&gt;eltávolítása&lt;/span&gt;" style="text;html=1;align=center;verticalAlign=middle;rounded=0;whiteSpace=wrap;" vertex="1" parent="qP4DaYPzQzSa8ORNxeyl-47">
          <mxGeometry y="24" width="220" height="176" as="geometry" />
        </mxCell>
        <mxCell id="qP4DaYPzQzSa8ORNxeyl-49" value="" style="endArrow=classic;html=1;rounded=0;fontSize=12;startSize=8;endSize=8;curved=1;exitX=1;exitY=0.5;exitDx=0;exitDy=0;entryX=0;entryY=0.5;entryDx=0;entryDy=0;" edge="1" parent="qP4DaYPzQzSa8ORNxeyl-1" source="qP4DaYPzQzSa8ORNxeyl-45" target="qP4DaYPzQzSa8ORNxeyl-47">
          <mxGeometry width="50" height="50" relative="1" as="geometry">
            <mxPoint x="-180" y="1030" as="sourcePoint" />
            <mxPoint x="-10" y="862" as="targetPoint" />
          </mxGeometry>
        </mxCell>
        <mxCell id="qP4DaYPzQzSa8ORNxeyl-50" value="Választás" style="text;html=1;align=center;verticalAlign=middle;resizable=0;points=[];autosize=1;strokeColor=none;fillColor=none;fontSize=16;" vertex="1" parent="qP4DaYPzQzSa8ORNxeyl-1">
          <mxGeometry x="-165" y="860" width="90" height="30" as="geometry" />
        </mxCell>
        <mxCell id="qP4DaYPzQzSa8ORNxeyl-51" value="Tagok" style="rounded=0;whiteSpace=wrap;html=1;" vertex="1" parent="qP4DaYPzQzSa8ORNxeyl-1">
          <mxGeometry x="342" y="844" width="160" height="30" as="geometry" />
        </mxCell>
        <mxCell id="qP4DaYPzQzSa8ORNxeyl-52" style="edgeStyle=none;curved=1;rounded=0;orthogonalLoop=1;jettySize=auto;html=1;entryX=0;entryY=0.5;entryDx=0;entryDy=0;fontSize=12;startSize=8;endSize=8;startArrow=classic;startFill=1;exitX=1;exitY=0.75;exitDx=0;exitDy=0;" edge="1" parent="qP4DaYPzQzSa8ORNxeyl-1" source="qP4DaYPzQzSa8ORNxeyl-48" target="qP4DaYPzQzSa8ORNxeyl-53">
          <mxGeometry relative="1" as="geometry">
            <mxPoint x="220" y="930" as="sourcePoint" />
          </mxGeometry>
        </mxCell>
        <mxCell id="qP4DaYPzQzSa8ORNxeyl-53" value="Csoportüzenetek" style="rounded=0;whiteSpace=wrap;html=1;" vertex="1" parent="qP4DaYPzQzSa8ORNxeyl-1">
          <mxGeometry x="342" y="930" width="160" height="30" as="geometry" />
        </mxCell>
      </root>
    </mxGraphModel>
  </diagram>
  <diagram name="2. szint - 3 - F" id="eFvmE69F_NaeFwaFwEqs">
    <mxGraphModel dx="1850" dy="1471" grid="1" gridSize="10" guides="1" tooltips="1" connect="1" arrows="1" fold="1" page="0" pageScale="1" pageWidth="2339" pageHeight="3300" math="0" shadow="0">
      <root>
        <mxCell id="6_be2jCWxjGjddCbKhLr-0" />
        <mxCell id="6_be2jCWxjGjddCbKhLr-1" parent="6_be2jCWxjGjddCbKhLr-0" />
        <mxCell id="6_be2jCWxjGjddCbKhLr-2" style="edgeStyle=none;curved=1;rounded=0;orthogonalLoop=1;jettySize=auto;html=1;exitX=1;exitY=0.5;exitDx=0;exitDy=0;entryX=0;entryY=0.5;entryDx=0;entryDy=0;fontSize=12;startSize=8;endSize=8;" edge="1" parent="6_be2jCWxjGjddCbKhLr-1" source="6_be2jCWxjGjddCbKhLr-4" target="6_be2jCWxjGjddCbKhLr-6">
          <mxGeometry relative="1" as="geometry" />
        </mxCell>
        <mxCell id="6_be2jCWxjGjddCbKhLr-3" style="edgeStyle=none;curved=0;rounded=0;orthogonalLoop=1;jettySize=auto;html=1;exitX=1;exitY=1;exitDx=0;exitDy=0;entryX=0;entryY=0.5;entryDx=0;entryDy=0;fontSize=12;startSize=8;endSize=8;" edge="1" parent="6_be2jCWxjGjddCbKhLr-1" source="6_be2jCWxjGjddCbKhLr-4" target="6_be2jCWxjGjddCbKhLr-8">
          <mxGeometry relative="1" as="geometry">
            <Array as="points">
              <mxPoint x="-317" y="-345" />
            </Array>
          </mxGeometry>
        </mxCell>
        <mxCell id="6_be2jCWxjGjddCbKhLr-4" value="Belépett felhasználó" style="ellipse;whiteSpace=wrap;html=1;fontSize=16;" vertex="1" parent="6_be2jCWxjGjddCbKhLr-1">
          <mxGeometry x="-420" y="-535" width="120" height="80" as="geometry" />
        </mxCell>
        <mxCell id="6_be2jCWxjGjddCbKhLr-5" value="3. Profil idővonal" style="swimlane;whiteSpace=wrap;html=1;" vertex="1" parent="6_be2jCWxjGjddCbKhLr-1">
          <mxGeometry x="-140" y="-610" width="350" height="510" as="geometry" />
        </mxCell>
        <mxCell id="6_be2jCWxjGjddCbKhLr-6" value="3.1 Poszt készítő oldal" style="swimlane;whiteSpace=wrap;html=1;" vertex="1" parent="6_be2jCWxjGjddCbKhLr-5">
          <mxGeometry x="75" y="60" width="200" height="110" as="geometry" />
        </mxCell>
        <mxCell id="6_be2jCWxjGjddCbKhLr-7" value="Poszt közzététele" style="text;html=1;align=center;verticalAlign=middle;whiteSpace=wrap;rounded=0;" vertex="1" parent="6_be2jCWxjGjddCbKhLr-6">
          <mxGeometry x="70" y="40" width="60" height="30" as="geometry" />
        </mxCell>
        <mxCell id="6_be2jCWxjGjddCbKhLr-8" value="3.2 Poszt oldal" style="swimlane;whiteSpace=wrap;html=1;" vertex="1" parent="6_be2jCWxjGjddCbKhLr-5">
          <mxGeometry x="75" y="210" width="200" height="110" as="geometry" />
        </mxCell>
        <mxCell id="6_be2jCWxjGjddCbKhLr-9" value="Saját posztok és kommentek szerkesztése, törlése" style="text;html=1;align=center;verticalAlign=middle;whiteSpace=wrap;rounded=0;" vertex="1" parent="6_be2jCWxjGjddCbKhLr-8">
          <mxGeometry x="35" y="30" width="130" height="60" as="geometry" />
        </mxCell>
        <mxCell id="6_be2jCWxjGjddCbKhLr-10" value="3.3 Más felhasználó idővonala (+admin)" style="swimlane;whiteSpace=wrap;html=1;startSize=40;" vertex="1" parent="6_be2jCWxjGjddCbKhLr-5">
          <mxGeometry x="75" y="360" width="200" height="110" as="geometry" />
        </mxCell>
        <mxCell id="6_be2jCWxjGjddCbKhLr-11" value="Mások posztjainak és kommentjeinek törlése" style="text;html=1;align=center;verticalAlign=middle;whiteSpace=wrap;rounded=0;" vertex="1" parent="6_be2jCWxjGjddCbKhLr-10">
          <mxGeometry x="35" y="40" width="130" height="60" as="geometry" />
        </mxCell>
        <mxCell id="6_be2jCWxjGjddCbKhLr-12" style="edgeStyle=none;curved=1;rounded=0;orthogonalLoop=1;jettySize=auto;html=1;exitX=1;exitY=0.5;exitDx=0;exitDy=0;entryX=0;entryY=0.5;entryDx=0;entryDy=0;fontSize=12;startSize=8;endSize=8;" edge="1" parent="6_be2jCWxjGjddCbKhLr-1" source="6_be2jCWxjGjddCbKhLr-13" target="6_be2jCWxjGjddCbKhLr-10">
          <mxGeometry relative="1" as="geometry" />
        </mxCell>
        <mxCell id="6_be2jCWxjGjddCbKhLr-13" value="Rendszer&lt;br&gt;admin" style="ellipse;whiteSpace=wrap;html=1;fontSize=16;" vertex="1" parent="6_be2jCWxjGjddCbKhLr-1">
          <mxGeometry x="-420" y="-235" width="120" height="80" as="geometry" />
        </mxCell>
        <mxCell id="6_be2jCWxjGjddCbKhLr-14" value="Posztok és kommentek" style="rounded=0;whiteSpace=wrap;html=1;" vertex="1" parent="6_be2jCWxjGjddCbKhLr-1">
          <mxGeometry x="380" y="-370" width="120" height="60" as="geometry" />
        </mxCell>
        <mxCell id="6_be2jCWxjGjddCbKhLr-15" style="edgeStyle=none;curved=1;rounded=0;orthogonalLoop=1;jettySize=auto;html=1;exitX=1;exitY=0.5;exitDx=0;exitDy=0;entryX=0;entryY=0.25;entryDx=0;entryDy=0;fontSize=12;startSize=8;endSize=8;" edge="1" parent="6_be2jCWxjGjddCbKhLr-1" source="6_be2jCWxjGjddCbKhLr-6" target="6_be2jCWxjGjddCbKhLr-14">
          <mxGeometry relative="1" as="geometry" />
        </mxCell>
        <mxCell id="6_be2jCWxjGjddCbKhLr-16" value="Megírás" style="text;html=1;align=center;verticalAlign=middle;resizable=0;points=[];autosize=1;strokeColor=none;fillColor=none;fontSize=16;" vertex="1" parent="6_be2jCWxjGjddCbKhLr-1">
          <mxGeometry x="-220" y="-525" width="80" height="30" as="geometry" />
        </mxCell>
        <mxCell id="6_be2jCWxjGjddCbKhLr-17" style="edgeStyle=none;curved=1;rounded=0;orthogonalLoop=1;jettySize=auto;html=1;entryX=0;entryY=0.5;entryDx=0;entryDy=0;fontSize=12;startSize=8;endSize=8;startArrow=classic;startFill=1;exitX=1;exitY=0.5;exitDx=0;exitDy=0;" edge="1" parent="6_be2jCWxjGjddCbKhLr-1" source="6_be2jCWxjGjddCbKhLr-8" target="6_be2jCWxjGjddCbKhLr-14">
          <mxGeometry relative="1" as="geometry">
            <mxPoint x="150" y="-310" as="sourcePoint" />
          </mxGeometry>
        </mxCell>
        <mxCell id="6_be2jCWxjGjddCbKhLr-18" value="Választás (és módosítás)" style="text;html=1;align=center;verticalAlign=middle;resizable=0;points=[];autosize=1;strokeColor=none;fillColor=none;fontSize=16;" vertex="1" parent="6_be2jCWxjGjddCbKhLr-1">
          <mxGeometry x="-340" y="-340" width="200" height="30" as="geometry" />
        </mxCell>
        <mxCell id="6_be2jCWxjGjddCbKhLr-19" value="Választás" style="text;html=1;align=center;verticalAlign=middle;resizable=0;points=[];autosize=1;strokeColor=none;fillColor=none;fontSize=16;" vertex="1" parent="6_be2jCWxjGjddCbKhLr-1">
          <mxGeometry x="-250" y="-185" width="90" height="30" as="geometry" />
        </mxCell>
        <mxCell id="6_be2jCWxjGjddCbKhLr-20" style="edgeStyle=none;curved=1;rounded=0;orthogonalLoop=1;jettySize=auto;html=1;exitX=1;exitY=0.5;exitDx=0;exitDy=0;entryX=0;entryY=0.75;entryDx=0;entryDy=0;fontSize=12;startSize=8;endSize=8;" edge="1" parent="6_be2jCWxjGjddCbKhLr-1" source="6_be2jCWxjGjddCbKhLr-10" target="6_be2jCWxjGjddCbKhLr-14">
          <mxGeometry relative="1" as="geometry" />
        </mxCell>
        <mxCell id="6_be2jCWxjGjddCbKhLr-21" value="" style="endArrow=none;html=1;rounded=0;fontSize=12;startSize=8;endSize=8;curved=1;exitX=0.5;exitY=0;exitDx=0;exitDy=0;entryX=0.5;entryY=1;entryDx=0;entryDy=0;startArrow=classic;startFill=1;" edge="1" parent="6_be2jCWxjGjddCbKhLr-1" source="6_be2jCWxjGjddCbKhLr-13" target="6_be2jCWxjGjddCbKhLr-4">
          <mxGeometry width="50" height="50" relative="1" as="geometry">
            <mxPoint x="-460" y="-310" as="sourcePoint" />
            <mxPoint x="-410" y="-360" as="targetPoint" />
          </mxGeometry>
        </mxCell>
        <mxCell id="6_be2jCWxjGjddCbKhLr-22" value="Jogöröklődés" style="text;html=1;align=center;verticalAlign=middle;resizable=0;points=[];autosize=1;strokeColor=none;fillColor=none;fontSize=16;" vertex="1" parent="6_be2jCWxjGjddCbKhLr-1">
          <mxGeometry x="-490" y="-370" width="120" height="30" as="geometry" />
        </mxCell>
      </root>
    </mxGraphModel>
  </diagram>
  <diagram name="2. szint - 4 - F" id="LlXQwhT4dOViC-5hODmr">
    <mxGraphModel dx="1850" dy="1471" grid="1" gridSize="10" guides="1" tooltips="1" connect="1" arrows="1" fold="1" page="0" pageScale="1" pageWidth="2339" pageHeight="3300" math="0" shadow="0">
      <root>
        <mxCell id="4hAjZhDUi2gIfTxMLhWG-0" />
        <mxCell id="4hAjZhDUi2gIfTxMLhWG-1" parent="4hAjZhDUi2gIfTxMLhWG-0" />
        <mxCell id="4hAjZhDUi2gIfTxMLhWG-2" style="edgeStyle=none;curved=1;rounded=0;orthogonalLoop=1;jettySize=auto;html=1;exitX=1;exitY=0.5;exitDx=0;exitDy=0;entryX=0;entryY=0.5;entryDx=0;entryDy=0;fontSize=12;startSize=8;endSize=8;" edge="1" parent="4hAjZhDUi2gIfTxMLhWG-1" source="4hAjZhDUi2gIfTxMLhWG-5" target="4hAjZhDUi2gIfTxMLhWG-7">
          <mxGeometry relative="1" as="geometry" />
        </mxCell>
        <mxCell id="4hAjZhDUi2gIfTxMLhWG-3" style="edgeStyle=none;curved=0;rounded=0;orthogonalLoop=1;jettySize=auto;html=1;exitX=1;exitY=1;exitDx=0;exitDy=0;entryX=0;entryY=0.5;entryDx=0;entryDy=0;fontSize=12;startSize=8;endSize=8;" edge="1" parent="4hAjZhDUi2gIfTxMLhWG-1" source="4hAjZhDUi2gIfTxMLhWG-5" target="4hAjZhDUi2gIfTxMLhWG-9">
          <mxGeometry relative="1" as="geometry">
            <Array as="points">
              <mxPoint x="-318" y="-345" />
            </Array>
          </mxGeometry>
        </mxCell>
        <mxCell id="4hAjZhDUi2gIfTxMLhWG-4" style="edgeStyle=none;curved=1;rounded=0;orthogonalLoop=1;jettySize=auto;html=1;exitX=0.5;exitY=1;exitDx=0;exitDy=0;entryX=0.5;entryY=0;entryDx=0;entryDy=0;fontSize=12;startSize=8;endSize=8;" edge="1" parent="4hAjZhDUi2gIfTxMLhWG-1" source="4hAjZhDUi2gIfTxMLhWG-5" target="4hAjZhDUi2gIfTxMLhWG-17">
          <mxGeometry relative="1" as="geometry" />
        </mxCell>
        <mxCell id="4hAjZhDUi2gIfTxMLhWG-5" value="Csoporttag" style="ellipse;whiteSpace=wrap;html=1;fontSize=16;" vertex="1" parent="4hAjZhDUi2gIfTxMLhWG-1">
          <mxGeometry x="-420" y="-535" width="120" height="80" as="geometry" />
        </mxCell>
        <mxCell id="4hAjZhDUi2gIfTxMLhWG-6" value="4. Csoport oldal" style="swimlane;whiteSpace=wrap;html=1;" vertex="1" parent="4hAjZhDUi2gIfTxMLhWG-1">
          <mxGeometry x="-140" y="-610" width="350" height="680" as="geometry" />
        </mxCell>
        <mxCell id="4hAjZhDUi2gIfTxMLhWG-7" value="4.1 Csoport listázó felület" style="swimlane;whiteSpace=wrap;html=1;" vertex="1" parent="4hAjZhDUi2gIfTxMLhWG-6">
          <mxGeometry x="75" y="60" width="200" height="110" as="geometry" />
        </mxCell>
        <mxCell id="4hAjZhDUi2gIfTxMLhWG-8" value="Csatlakozás" style="text;html=1;align=center;verticalAlign=middle;whiteSpace=wrap;rounded=0;" vertex="1" parent="4hAjZhDUi2gIfTxMLhWG-7">
          <mxGeometry x="70" y="40" width="60" height="30" as="geometry" />
        </mxCell>
        <mxCell id="4hAjZhDUi2gIfTxMLhWG-9" value="4.2 Csoport chat" style="swimlane;whiteSpace=wrap;html=1;" vertex="1" parent="4hAjZhDUi2gIfTxMLhWG-6">
          <mxGeometry x="75" y="210" width="200" height="110" as="geometry" />
        </mxCell>
        <mxCell id="4hAjZhDUi2gIfTxMLhWG-10" value="Üzenés csoportnak és saját üzenetek átírása, törlése" style="text;html=1;align=center;verticalAlign=middle;whiteSpace=wrap;rounded=0;" vertex="1" parent="4hAjZhDUi2gIfTxMLhWG-9">
          <mxGeometry x="35" y="30" width="130" height="60" as="geometry" />
        </mxCell>
        <mxCell id="4hAjZhDUi2gIfTxMLhWG-11" value="4.3 Csoport chat (+admin)" style="swimlane;whiteSpace=wrap;html=1;" vertex="1" parent="4hAjZhDUi2gIfTxMLhWG-6">
          <mxGeometry x="75" y="360" width="200" height="110" as="geometry" />
        </mxCell>
        <mxCell id="4hAjZhDUi2gIfTxMLhWG-12" value="Mások üzeneteinek törlése" style="text;html=1;align=center;verticalAlign=middle;whiteSpace=wrap;rounded=0;" vertex="1" parent="4hAjZhDUi2gIfTxMLhWG-11">
          <mxGeometry x="35" y="30" width="130" height="60" as="geometry" />
        </mxCell>
        <mxCell id="4hAjZhDUi2gIfTxMLhWG-13" value="4.4 Csoport tagok listája" style="swimlane;whiteSpace=wrap;html=1;" vertex="1" parent="4hAjZhDUi2gIfTxMLhWG-6">
          <mxGeometry x="75" y="510" width="200" height="110" as="geometry" />
        </mxCell>
        <mxCell id="4hAjZhDUi2gIfTxMLhWG-14" value="Csoporttagok kidobása" style="text;html=1;align=center;verticalAlign=middle;whiteSpace=wrap;rounded=0;" vertex="1" parent="4hAjZhDUi2gIfTxMLhWG-13">
          <mxGeometry x="35" y="30" width="130" height="60" as="geometry" />
        </mxCell>
        <mxCell id="4hAjZhDUi2gIfTxMLhWG-15" style="edgeStyle=none;curved=1;rounded=0;orthogonalLoop=1;jettySize=auto;html=1;exitX=1;exitY=0.5;exitDx=0;exitDy=0;entryX=0;entryY=0.5;entryDx=0;entryDy=0;fontSize=12;startSize=8;endSize=8;" edge="1" parent="4hAjZhDUi2gIfTxMLhWG-1" source="4hAjZhDUi2gIfTxMLhWG-17" target="4hAjZhDUi2gIfTxMLhWG-11">
          <mxGeometry relative="1" as="geometry" />
        </mxCell>
        <mxCell id="4hAjZhDUi2gIfTxMLhWG-16" style="edgeStyle=none;curved=0;rounded=0;orthogonalLoop=1;jettySize=auto;html=1;exitX=0.5;exitY=1;exitDx=0;exitDy=0;entryX=0;entryY=0.5;entryDx=0;entryDy=0;fontSize=12;startSize=8;endSize=8;" edge="1" parent="4hAjZhDUi2gIfTxMLhWG-1" source="4hAjZhDUi2gIfTxMLhWG-17" target="4hAjZhDUi2gIfTxMLhWG-13">
          <mxGeometry relative="1" as="geometry">
            <Array as="points">
              <mxPoint x="-360" y="-45" />
            </Array>
          </mxGeometry>
        </mxCell>
        <mxCell id="4hAjZhDUi2gIfTxMLhWG-17" value="Csoport&lt;br&gt;admin" style="ellipse;whiteSpace=wrap;html=1;fontSize=16;" vertex="1" parent="4hAjZhDUi2gIfTxMLhWG-1">
          <mxGeometry x="-420" y="-235" width="120" height="80" as="geometry" />
        </mxCell>
        <mxCell id="4hAjZhDUi2gIfTxMLhWG-18" value="Csoportüzenetek" style="rounded=0;whiteSpace=wrap;html=1;" vertex="1" parent="4hAjZhDUi2gIfTxMLhWG-1">
          <mxGeometry x="270" y="-295" width="120" height="60" as="geometry" />
        </mxCell>
        <mxCell id="4hAjZhDUi2gIfTxMLhWG-19" value="Böngészés" style="text;html=1;align=center;verticalAlign=middle;resizable=0;points=[];autosize=1;strokeColor=none;fillColor=none;fontSize=16;" vertex="1" parent="4hAjZhDUi2gIfTxMLhWG-1">
          <mxGeometry x="-250" y="-525" width="100" height="30" as="geometry" />
        </mxCell>
        <mxCell id="4hAjZhDUi2gIfTxMLhWG-20" style="edgeStyle=none;curved=1;rounded=0;orthogonalLoop=1;jettySize=auto;html=1;fontSize=12;startSize=8;endSize=8;startArrow=classic;startFill=1;exitX=1;exitY=0.5;exitDx=0;exitDy=0;entryX=0;entryY=0.25;entryDx=0;entryDy=0;" edge="1" parent="4hAjZhDUi2gIfTxMLhWG-1" source="4hAjZhDUi2gIfTxMLhWG-9" target="4hAjZhDUi2gIfTxMLhWG-18">
          <mxGeometry relative="1" as="geometry">
            <mxPoint x="150" y="-310" as="sourcePoint" />
            <mxPoint x="270" y="-300" as="targetPoint" />
          </mxGeometry>
        </mxCell>
        <mxCell id="4hAjZhDUi2gIfTxMLhWG-21" value="Választás és/vagy Írás" style="text;html=1;align=center;verticalAlign=middle;resizable=0;points=[];autosize=1;strokeColor=none;fillColor=none;fontSize=16;" vertex="1" parent="4hAjZhDUi2gIfTxMLhWG-1">
          <mxGeometry x="-330" y="-340" width="180" height="30" as="geometry" />
        </mxCell>
        <mxCell id="4hAjZhDUi2gIfTxMLhWG-22" value="Választás" style="text;html=1;align=center;verticalAlign=middle;resizable=0;points=[];autosize=1;strokeColor=none;fillColor=none;fontSize=16;" vertex="1" parent="4hAjZhDUi2gIfTxMLhWG-1">
          <mxGeometry x="-250" y="-185" width="90" height="30" as="geometry" />
        </mxCell>
        <mxCell id="4hAjZhDUi2gIfTxMLhWG-23" style="edgeStyle=none;curved=1;rounded=0;orthogonalLoop=1;jettySize=auto;html=1;exitX=1;exitY=0.5;exitDx=0;exitDy=0;entryX=0;entryY=0.75;entryDx=0;entryDy=0;fontSize=12;startSize=8;endSize=8;" edge="1" parent="4hAjZhDUi2gIfTxMLhWG-1" source="4hAjZhDUi2gIfTxMLhWG-11" target="4hAjZhDUi2gIfTxMLhWG-18">
          <mxGeometry relative="1" as="geometry" />
        </mxCell>
        <mxCell id="4hAjZhDUi2gIfTxMLhWG-24" value="Jogöröklődés" style="text;html=1;align=center;verticalAlign=middle;resizable=0;points=[];autosize=1;strokeColor=none;fillColor=none;fontSize=16;" vertex="1" parent="4hAjZhDUi2gIfTxMLhWG-1">
          <mxGeometry x="-490" y="-370" width="120" height="30" as="geometry" />
        </mxCell>
        <mxCell id="4hAjZhDUi2gIfTxMLhWG-25" value="Tag kiválasztása" style="text;html=1;align=center;verticalAlign=middle;resizable=0;points=[];autosize=1;strokeColor=none;fillColor=none;fontSize=16;" vertex="1" parent="4hAjZhDUi2gIfTxMLhWG-1">
          <mxGeometry x="-275" y="-80" width="140" height="30" as="geometry" />
        </mxCell>
        <mxCell id="4hAjZhDUi2gIfTxMLhWG-26" value="Tagok" style="rounded=0;whiteSpace=wrap;html=1;" vertex="1" parent="4hAjZhDUi2gIfTxMLhWG-1">
          <mxGeometry x="500" y="-295" width="120" height="60" as="geometry" />
        </mxCell>
        <mxCell id="4hAjZhDUi2gIfTxMLhWG-27" style="edgeStyle=none;curved=1;rounded=0;orthogonalLoop=1;jettySize=auto;html=1;exitX=1;exitY=0.5;exitDx=0;exitDy=0;entryX=0;entryY=0.75;entryDx=0;entryDy=0;fontSize=12;startSize=8;endSize=8;" edge="1" parent="4hAjZhDUi2gIfTxMLhWG-1" source="4hAjZhDUi2gIfTxMLhWG-13" target="4hAjZhDUi2gIfTxMLhWG-26">
          <mxGeometry relative="1" as="geometry" />
        </mxCell>
        <mxCell id="4hAjZhDUi2gIfTxMLhWG-28" style="edgeStyle=none;curved=1;rounded=0;orthogonalLoop=1;jettySize=auto;html=1;exitX=1;exitY=0.5;exitDx=0;exitDy=0;fontSize=12;startSize=8;endSize=8;entryX=0;entryY=0.25;entryDx=0;entryDy=0;" edge="1" parent="4hAjZhDUi2gIfTxMLhWG-1" source="4hAjZhDUi2gIfTxMLhWG-7" target="4hAjZhDUi2gIfTxMLhWG-26">
          <mxGeometry relative="1" as="geometry">
            <mxPoint x="480" y="-320" as="targetPoint" />
          </mxGeometry>
        </mxCell>
      </root>
    </mxGraphModel>
  </diagram>
</mxfile>
